<svg xmlns="http://www.w3.org/2000/svg" fill="#0d6efd" width="147.064" height="55.351" viewBox="0 0 147.064 55.351"><g id="Vajd5V" transform="translate(2060.241 322.318)"><g id="Group_386" data-name="Group 386" transform="translate(-2060.241 -322.318)"><path id="Path_1071" data-name="Path 1071" d="M-2051.494-300.928a27.557,27.557,0,0,1,20.314-20.592,27.719,27.719,0,0,1,29.815,11.8,27.569,27.569,0,0,1,1.357,27.712c-.107-.026-.115-.12-.125-.2a28.867,28.867,0,0,0-2.771-8.517c-1.26-2.695-2.847-5.21-4.253-7.824a17.745,17.745,0,0,1-2.026-4.942,5.013,5.013,0,0,1-.057-1.12,27.947,27.947,0,0,0-.862-7.794,8.829,8.829,0,0,0-1.241-2.886c-.115-.166-.228-.372-.452-.362-.259.012-.327.265-.4.46a10.148,10.148,0,0,0-.482,2.627,9.1,9.1,0,0,1-.235,1.623c-.206.727-.56.852-1.164.416-.163-.118-.314-.254-.467-.385a6.111,6.111,0,0,0-4.035-1.414c-.519-.007-1.039.011-1.557-.017-.776-.042-.991-.423-.593-1.084.483-.8,1.017-1.573,1.51-2.37a11.292,11.292,0,0,0,.557-1.074c.087-.182.166-.4.009-.57s-.382-.069-.563.013a21.158,21.158,0,0,0-3.958,2.376c-1.505,1.125-2.8,2.484-4.2,3.724a11.007,11.007,0,0,1-4.419,2.278c-3.843,1.085-7.72,2.042-11.541,3.206a20.277,20.277,0,0,0-4.944,2.029,10.687,10.687,0,0,0-3,2.643C-2051.32-301.115-2051.37-301.067-2051.494-300.928Z" transform="translate(2052.251 322.318)" fill="#0d6efd"></path><path id="Path_1072" data-name="Path 1072" d="M-1973,60.876c.211.1.388-.028.562-.107a6.088,6.088,0,0,0,1.834-1.353c.875-.9,1.675-1.867,2.583-2.734a9.352,9.352,0,0,1,3.414-2.145,4.566,4.566,0,0,1,4.054.536,17.949,17.949,0,0,1,3.2,2.9,53.844,53.844,0,0,0,6.693,6.308c.27.192.184.321.018.511a25.913,25.913,0,0,1-4.889,4.3,27.24,27.24,0,0,1-12.594,4.691,27.417,27.417,0,0,1-16.561-3.3,27.576,27.576,0,0,1-6.85-5.361c-.482-.515-.923-1.068-1.378-1.609-.08-.095-.222-.2-.152-.332.083-.155.261-.08.394-.061a47.215,47.215,0,0,0,8.8.4,14.39,14.39,0,0,0,7.572-2.095,16,16,0,0,0,3.648-3.6,32.505,32.505,0,0,1,3.711-4.439,8.706,8.706,0,0,1,6.14-2.479,7.861,7.861,0,0,1,4.269,1.49,15.9,15.9,0,0,1,3.182,2.973,45.789,45.789,0,0,0,5.226,5.158c.47.4.947.8,1.434,1.183.211.166.27.313.1.538q-.5.649-.986,1.314c-.133.182-.243.2-.416.042a64.919,64.919,0,0,1-5.868-5.926,14.489,14.489,0,0,0-4.486-3.806,5.857,5.857,0,0,0-7.071.956,65.459,65.459,0,0,0-5.5,5.856A.194.194,0,0,0-1973,60.876Z" transform="translate(1998.902 -18.604)" fill="#0d6efd"></path><path id="Path_1073" data-name="Path 1073" d="M-2053.151-24.86h-1.773a1.035,1.035,0,0,1-.949-.544,27.81,27.81,0,0,1-3.839-9.531,28.112,28.112,0,0,1-.527-4.458c-.016-.417.108-.515.491-.367a1.713,1.713,0,0,0,.978.027,35.055,35.055,0,0,1,8.207-.691,13.643,13.643,0,0,1,6.172,1.452,4.2,4.2,0,0,1,2.5,3.394,8.653,8.653,0,0,1-.1,1.851,6.106,6.106,0,0,0,.056,2.316,3.913,3.913,0,0,0,.2.57c.056.128.109.324.252.326.2,0,.185-.226.235-.363a16.214,16.214,0,0,0,.909-4.345,4.854,4.854,0,0,0-2.788-4.911,14.2,14.2,0,0,0-4.983-1.493,32.67,32.67,0,0,0-11.623.73c-.39.086-.51.024-.5-.391.023-1.286.008-1.293,1.264-1.531,2.279-.432,4.564-.841,6.875-1.047a18.916,18.916,0,0,1,9.084,1.164,11.585,11.585,0,0,1,3.351,2.109,4.967,4.967,0,0,1,1.578,3.638,11.218,11.218,0,0,1-4.29,9.6,11.338,11.338,0,0,1-5.018,1.992c-.7.146-1.418.255-2.133.339A22.868,22.868,0,0,1-2053.151-24.86Z" transform="translate(2060.241 68.059)" fill="#0d6efd"></path><path id="Path_1074" data-name="Path 1074" d="M-1301.127-134.684c-.558,1.121-1.128,2.235-1.671,3.363-1.005,2.092-1.995,4.191-2.989,6.288-.1.212-.177.426-.49.378s-.645.112-.862-.343c-1.427-2.993-2.888-5.969-4.339-8.95-.068-.14-.143-.276-.237-.458a1.326,1.326,0,0,0-.227.844,60.733,60.733,0,0,0-.715,8.562c.006.274-.1.4-.375.4q-.714-.005-1.427,0c-.3,0-.4-.114-.347-.428.434-2.834.851-5.67,1.276-8.506.284-1.895.5-3.8.843-5.686.12-.65.122-.645.757-.613a2.075,2.075,0,0,0,.688-.025c.44-.134.64.029.817.429,1.432,3.231,3.1,6.346,4.7,9.493.055.108.075.285.227.282.123,0,.144-.164.195-.262q2.159-4.239,4.312-8.48c.209-.411.4-.829.6-1.248a.379.379,0,0,1,.487-.238,3.009,3.009,0,0,0,1.2,0c.263-.046.365.043.393.3.4,3.8.859,7.586,1.411,11.363q.231,1.582.529,3.154c.069.362-.039.469-.381.466-.966-.009-1.932-.012-2.9,0-.356,0-.471-.15-.493-.49-.161-2.545-.474-5.076-.749-7.61-.071-.654-.095-1.313-.14-1.97Z" transform="translate(1379.317 155.687)" fill="#0d6efd"></path><path id="Path_1075" data-name="Path 1075" d="M-876.133-135.369c0,.43,0,.947,0,1.464q0,4.153,0,8.306c0,.683-.008.69-.708.691-.231,0-.462-.013-.692,0-.377.025-.508-.144-.5-.512.013-1.24.005-2.48.006-3.72,0-2.336-.022-4.672.014-7.008.019-1.21.052-2.421.045-3.631,0-.329.11-.475.452-.462.432.018.866.022,1.3,0a.953.953,0,0,1,.828.363c1.314,1.494,2.71,2.911,4.069,4.363,1.635,1.746,3.255,3.507,4.883,5.26.075.081.135.189.274.207.1-.156.052-.333.052-.5q.009-4.542.01-9.084c0-.6,0-.6.6-.6.288,0,.578.015.865,0,.343-.021.456.134.453.461-.008,1.254,0,2.509,0,3.763q0,5.234.008,10.469c0,.609-.032.577-.629.649a2.53,2.53,0,0,1-2.326-.959c-2.246-2.419-4.447-4.877-6.661-7.325C-874.516-133.977-875.365-134.657-876.133-135.369Z" transform="translate(980.325 155.997)" fill="#0d6efd"></path><path id="Path_1076" data-name="Path 1076" d="M-1067.1-126.978c-.5,0-1.009-.011-1.513,0a.5.5,0,0,1-.554-.41c-.409-1.245-.855-2.479-1.272-3.721a.562.562,0,0,0-.625-.449c-1.412.019-2.825.016-4.237,0a.553.553,0,0,0-.607.414c-.451,1.2-.916,2.4-1.254,3.635-.1.382-.271.564-.686.533-.43-.032-.864,0-1.3-.009s-.469-.058-.3-.448q2.433-5.776,4.868-11.552c.448-1.062.9-2.123,1.332-3.191.109-.269.233-.374.545-.326a3.762,3.762,0,0,0,1.033,0,.393.393,0,0,1,.48.3q1.284,3.188,2.578,6.372,1.668,4.128,3.33,8.258c.222.55.2.582-.391.585C-1066.153-126.976-1066.628-126.978-1067.1-126.978Zm-5.945-11.064c-.2.468-.353.822-.5,1.177q-.726,1.711-1.453,3.423c-.083.2-.2.4.17.4q1.665,0,3.33,0c.219,0,.286-.1.209-.3C-1071.864-134.87-1072.432-136.393-1073.048-138.042Z" transform="translate(1164.399 158.066)" fill="#0d6efd"></path><path id="Path_1077" data-name="Path 1077" d="M-516.284-127.01c-.5,0-1.01-.013-1.514,0a.523.523,0,0,1-.588-.435q-.588-1.878-1.279-3.721a.543.543,0,0,0-.593-.424c-1.427.016-2.855.013-4.283,0a.524.524,0,0,0-.572.4c-.467,1.226-.934,2.452-1.284,3.718a.534.534,0,0,1-.61.464c-.432-.018-.865,0-1.3-.005-.483-.006-.522-.058-.338-.5.556-1.33,1.12-2.657,1.68-3.985q2.234-5.3,4.461-10.6c.137-.327.279-.493.662-.418a2.047,2.047,0,0,0,.817,0c.379-.084.533.059.668.395q2.927,7.283,5.874,14.558c.212.525.191.553-.378.556C-515.332-127.007-515.808-127.009-516.284-127.01Zm-6.1-6.068c.518,0,1.036-.009,1.554,0,.3.008.424-.052.294-.391-.53-1.383-1.039-2.775-1.56-4.162-.037-.1-.029-.262-.184-.25-.106.008-.129.142-.168.232-.592,1.389-1.178,2.781-1.775,4.169-.137.319-.033.41.285.4C-523.415-133.087-522.9-133.078-522.379-133.077Z" transform="translate(661.257 158.098)" fill="#0d6efd"></path><path id="Path_1078" data-name="Path 1078" d="M-674.048-131.716q0,3.112,0,6.225c0,.573-.019.593-.571.595-.764,0-1.528-.019-2.291.008-.442.016-.562-.148-.56-.577.016-4.135.014-8.271.016-12.407,0-.7,0-.7-.682-.687a24.483,24.483,0,0,0-2.451.215c-.086.01-.171.026-.257.032-.785.053-.781.052-.762-.713a3.864,3.864,0,0,0-.028-.776c-.063-.352.092-.43.4-.424.576.01,1.153,0,1.729,0,2.983,0,5.966.005,8.948-.006.39,0,.548.065.446.507a2.331,2.331,0,0,0,.01.982c.087.4-.093.458-.4.429-.645-.059-1.291-.108-1.934-.188-.374-.047-.748-.036-1.12-.067s-.5.12-.5.495c.012,2.118.006,4.236.006,6.355Z" transform="translate(800.932 155.985)" fill="#0d6efd"></path><path id="Path_1079" data-name="Path 1079" d="M-1782.686-111.426a.9.9,0,0,1,.8,1.171,13,13,0,0,1-.952,2.86,53.958,53.958,0,0,1-3.51,6.441c-1.19,1.971-2.427,3.915-3.519,5.946-.354.658-.784,1.275-1.183,1.908-.066.1-.135.269-.289.2s-.054-.223-.008-.336c1.669-4.121,3.344-8.24,5.1-12.324.643-1.494,1.282-2.992,2.024-4.443a3.378,3.378,0,0,1,.842-1.137A.978.978,0,0,1-1782.686-111.426Z" transform="translate(1814.69 129.675)" fill="#0d6efd"></path><path id="Path_1080" data-name="Path 1080" d="M-907.67,118.988q.445-1.118.889-2.236a.376.376,0,0,0-.022-.293c-.245-.585-.488-1.17-.734-1.754a.854.854,0,0,0-.694-.519c-.1-.019-.272,0-.245-.168.023-.142.181-.118.291-.119q1.729,0,3.459,0c.107,0,.261-.02.268.141.006.135-.134.131-.229.143-.461.057-.636.381-.851.754a2.337,2.337,0,0,0,.056,2.508,15.989,15.989,0,0,1,.678,1.563c.19-.1.2-.266.254-.4q.726-1.9,1.44-3.8c.16-.423.11-.507-.348-.626-.1-.027-.265,0-.24-.17.018-.127.153-.113.25-.114q.757-.005,1.513,0c.1,0,.229-.008.253.113.028.143-.109.144-.2.161a.932.932,0,0,0-.7.689q-.93,2.421-1.867,4.839c-.082.213-.136.444-.447.446s-.367-.225-.461-.434c-.341-.759-.684-1.517-1.054-2.336a2.569,2.569,0,0,0-.391.779c-.235.542-.462,1.087-.686,1.634-.088.214-.192.371-.466.363s-.338-.177-.415-.369c-.623-1.566-1.251-3.131-1.867-4.7-.188-.48-.406-.9-1.008-.917-.086,0-.191-.031-.182-.14s.113-.123.2-.124q1.059,0,2.118,0c.083,0,.183.023.178.14,0,.089-.089.1-.156.12-.528.188-.546.22-.344.724q.766,1.905,1.539,3.807C-907.858,118.8-907.846,118.927-907.67,118.988Zm1.317-3.608.116,0c.114-.275.235-.548.339-.828.047-.128.036-.279-.113-.331a.79.79,0,0,0-.668.021c-.147.086-.063.236-.016.351C-906.589,114.86-906.469,115.119-906.353,115.38Z" transform="translate(1010.833 -76.152)" fill="#0d6efd"></path><path id="Path_1081" data-name="Path 1081" d="M-578.907,118.978a2.918,2.918,0,0,1-2.8-.7c-.446-.45-.911-.882-1.344-1.345a1.554,1.554,0,0,0-1.373-.456c-.238.02-.331.127-.329.355,0,.4-.007.807,0,1.21.011.494.133.619.632.689.122.017.308-.013.309.156,0,.2-.2.172-.332.173-.691.006-1.383.005-2.074,0-.126,0-.308.015-.324-.14-.022-.211.186-.183.317-.189.372-.017.5-.241.506-.57,0-1.484,0-2.968,0-4.453,0-.4-.222-.567-.591-.6-.1-.009-.227-.008-.227-.143,0-.1.109-.121.2-.128a16.538,16.538,0,0,1,2.976-.063,3.5,3.5,0,0,1,.955.262,1.52,1.52,0,0,1,1,1.439,1.492,1.492,0,0,1-.822,1.463c-.353.177-.324.3-.063.545.486.449.945.928,1.414,1.4A4.192,4.192,0,0,0-578.907,118.978Zm-3.522-4.464a1.171,1.171,0,0,0-.488-1.11,2.6,2.6,0,0,0-1.572-.368.243.243,0,0,0-.263.273q0,1.317,0,2.635a.238.238,0,0,0,.2.246A1.648,1.648,0,0,0-582.429,114.515Z" transform="translate(714.056 -75.09)" fill="#0d6efd"></path><path id="Path_1082" data-name="Path 1082" d="M-1311.053,118.423v-1.855c0-.591-.016-1.183,0-1.774a.588.588,0,0,0-.556-.683c-.124-.022-.354.039-.325-.171.023-.173.238-.117.373-.118.548-.006,1.1,0,1.644,0,.1,0,.233-.017.249.113.021.175-.139.144-.244.162-.6.108-.612.121-.612.714,0,1.572,0,3.144,0,4.716,0,.162.077.379-.129.463s-.3-.113-.42-.233q-2.253-2.3-4.508-4.6c-.067-.069-.119-.167-.246-.165-.115.118-.063.27-.063.4q-.008,1.8,0,3.591c0,.559.092.663.654.769.1.02.271-.034.268.136,0,.148-.155.154-.268.155q-.844.007-1.687,0c-.112,0-.259,0-.282-.14-.027-.163.127-.175.235-.185.4-.037.481-.29.479-.634-.006-1.442-.011-2.884.005-4.326,0-.367-.122-.572-.482-.64-.1-.019-.269-.019-.235-.184.029-.143.183-.114.293-.116.274-.006.549.011.822-.007a.87.87,0,0,1,.723.308q1.925,1.988,3.864,3.962A1.026,1.026,0,0,0-1311.053,118.423Z" transform="translate(1381.502 -76.077)" fill="#0d6efd"></path><path id="Path_1083" data-name="Path 1083" d="M-432.821,120.131c-.374,0-.749,0-1.124,0-.114,0-.26,0-.293-.129-.039-.157.109-.184.22-.2.386-.06.37-.266.176-.51a9.6,9.6,0,0,0-1.777-1.818c-.151-.112-.321-.236-.514-.136s-.122.306-.125.471c-.008.418-.006.836,0,1.254.006.553.078.636.617.744.109.022.26.009.251.17s-.158.152-.268.153q-1.081.007-2.162,0c-.109,0-.259,0-.267-.154s.145-.167.253-.167c.494,0,.629-.265.623-.723-.019-1.384,0-2.768-.007-4.152,0-.58-.067-.651-.645-.752-.1-.017-.23-.007-.222-.144s.138-.129.237-.13c.706,0,1.413,0,2.119,0,.107,0,.261-.021.271.139.008.135-.134.126-.227.145a.652.652,0,0,0-.574.737c.01.548,0,1.1,0,1.644,0,.334.161.437.432.261a5.078,5.078,0,0,0,1.894-2.248c.125-.281-.1-.341-.308-.394-.093-.024-.235-.007-.231-.142.006-.163.161-.14.268-.141.678,0,1.355,0,2.033,0,.1,0,.235-.007.246.119.015.171-.146.152-.251.155a1.656,1.656,0,0,0-1.371.85,7.377,7.377,0,0,1-1.3,1.606c-.173.145-.128.26.028.381a13.234,13.234,0,0,1,2.03,2.176,1.367,1.367,0,0,0,1.087.607c.131,0,.343-.021.323.183-.017.183-.221.148-.357.15-.36.007-.721,0-1.081,0Z" transform="translate(578.445 -76.158)" fill="#0d6efd"></path><path id="Path_1084" data-name="Path 1084" d="M-731.268,118.705a3.681,3.681,0,0,1-3-1.334,3.169,3.169,0,0,1,.729-4.314,4.048,4.048,0,0,1,4.627-.043,2.754,2.754,0,0,1,1.229,2.773,3.059,3.059,0,0,1-2.22,2.705A3.657,3.657,0,0,1-731.268,118.705Zm-.175-6.053a2.219,2.219,0,0,0-1.749.882,3.323,3.323,0,0,0-.219,3.411,2.5,2.5,0,0,0,1.615,1.4,2.253,2.253,0,0,0,2.994-1.612,3.742,3.742,0,0,0-.033-2.129A2.632,2.632,0,0,0-731.443,112.652Z" transform="translate(849.507 -74.703)" fill="#0d6efd"></path><path id="Path_1085" data-name="Path 1085" d="M-1167.905,120.161c-.75,0-1.5,0-2.25,0-.135,0-.342.032-.351-.155s.2-.161.333-.173c.7-.061.817-.174.818-.873q.005-1.947,0-3.893c0-.611-.118-.743-.726-.857-.1-.018-.231,0-.233-.136s.131-.137.228-.137q2.12,0,4.239,0c.158,0,.292.054.309.234.032.329.058.66.079.99.006.088-.021.182-.125.2s-.155-.063-.183-.148-.049-.2-.079-.292a.679.679,0,0,0-.762-.548c-.489.027-.98.013-1.47.005-.271,0-.4.1-.392.383q.012.779,0,1.557c0,.278.117.391.39.383.346-.01.693-.015,1.038,0,.4.02.724-.043.818-.5.015-.073.059-.143.144-.133s.113.088.114.162q.005.735,0,1.47c0,.072-.022.158-.1.17-.113.017-.144-.082-.155-.166-.065-.489-.388-.582-.812-.559-.345.019-.692.011-1.038,0-.268-.006-.4.1-.4.38.009.562.006,1.125,0,1.687,0,.317.146.5.462.5.562.009,1.125.021,1.687,0a.974.974,0,0,0,.888-.767c.039-.114.049-.311.21-.282.192.034.115.231.113.365a2.669,2.669,0,0,1-.047.3c-.109.841-.109.841-.979.841Z" transform="translate(1247.49 -76.185)" fill="#0d6efd"></path><path id="Path_1086" data-name="Path 1086" d="M-1039.733,115.641c0,.707-.006,1.413,0,2.12.007.514.158.662.667.7.072.005.145,0,.215.014.086.013.184.036.189.141.007.136-.109.163-.208.167-.288.011-.576.012-.865.012-.562,0-1.124,0-1.686-.006-.122,0-.3.006-.283-.179.011-.142.166-.131.278-.145.773-.1.8-.127.8-.91,0-1.341-.011-2.682.007-4.023.005-.386-.106-.563-.514-.528-.3.026-.605,0-.908.005-.614,0-.74.107-.883.709-.03.127.023.354-.177.333s-.121-.235-.113-.366c.019-.33.056-.66.095-.989.025-.212.133-.326.354-.219a1.128,1.128,0,0,0,.506.084h4.239a1.767,1.767,0,0,1,.216,0c.173.021.329-.209.486-.074s.108.379.14.573c.044.269.047.545.067.818.005.071.016.157-.066.186-.117.041-.144-.061-.174-.139-.121-.316-.116-.765-.494-.859a5.53,5.53,0,0,0-1.678-.032c-.243.015-.2.24-.21.407,0,.014,0,.029,0,.043Q-1039.733,114.559-1039.733,115.641Z" transform="translate(1131.227 -74.817)" fill="#0d6efd"></path><path id="Path_1087" data-name="Path 1087" d="M-1634.192-154.131a.865.865,0,0,1,.9.937.864.864,0,0,1-.936.9.878.878,0,0,1-.9-.94A.868.868,0,0,1-1634.192-154.131Z" transform="translate(1671.914 168.683)" fill="#0d6efd"></path><path id="Path_1088" data-name="Path 1088" d="M-1724.263-187.424a.8.8,0,0,1-.829-.845.821.821,0,0,1,.83-.814.811.811,0,0,1,.83.852A.816.816,0,0,1-1724.263-187.424Z" transform="translate(1754.091 200.611)" fill="#0d6efd"></path></g></g></svg>