<svg xmlns="http://www.w3.org/2000/svg" id="Group_268" data-name="Group 268" width="74.535" height="24.8" viewBox="0 0 74.535 24.8"><path id="Path_907" data-name="Path 907" d="M-2429.437-705.8c1.719-3.818,3.427-7.6,5.125-11.385q2.613-5.823,5.21-11.654c.342-.767.789-1.39,1.726-1.4a1.8,1.8,0,0,1,1.722,1.2q5.181,11.506,10.345,23.02a.715.715,0,0,1,0,.272c-2.543.207-3.049.125-3.688-2.144-.922-3.276-2.691-4.56-6.138-4.094a52.57,52.57,0,0,1-7.726.054,1.143,1.143,0,0,0-1.292.85c-.412,1.113-.931,2.186-1.414,3.273C-2426.525-705.634-2426.84-705.466-2429.437-705.8Zm17.559-8.5-5.412-12.21c-1.773,4.012-3.424,7.749-5.076,11.486-.4.9.3.717.739.718C-2418.46-714.294-2415.292-714.3-2411.879-714.3Z" transform="translate(2429.437 730.247)" fill="#7CE3CB"></path><path id="Path_908" data-name="Path 908" d="M-2336.054-717.114c0-3.523.041-7.047-.02-10.569-.025-1.442.607-1.939,1.961-1.922,2.828.036,5.658-.052,8.484.024,6.038.163,9.286,6.008,6.184,11.113a6.792,6.792,0,0,1-5.911,3.142c-2.179.1-4.366.072-6.548.016-.936-.024-1.285.2-1.244,1.213.085,2.081.03,4.167.024,6.251a2.541,2.541,0,0,1-.9,2.249,1.862,1.862,0,0,1-1.689.334c-.67-.206-.328-.847-.332-1.282-.027-3.523-.015-7.046-.015-10.569Zm2.928-5.37c0,1.29.03,2.581-.011,3.869-.023.692.176.958.915.939,2.181-.057,4.369.046,6.545-.074,2.844-.157,4.425-1.917,4.447-4.73a4.343,4.343,0,0,0-4.371-4.644c-2.225-.135-4.463-.036-6.694-.085-.661-.015-.859.227-.843.856C-2333.1-725.064-2333.128-723.774-2333.126-722.484Z" transform="translate(2363.921 729.813)" fill="#7CE3CB"></path><path id="Path_909" data-name="Path 909" d="M-2218.7-718.195c3.025,1.209,4.348,3.314,4.194,6.237-.184,3.491-2.322,5.708-5.808,6.292a12.486,12.486,0,0,1-7.656-1.094,2.335,2.335,0,0,1-1.479-1.894,1.5,1.5,0,0,1,.5-1.481c.445-.291.776.261,1.119.5a9.133,9.133,0,0,0,6.621,1.6,4.065,4.065,0,0,0,3.81-3.864c.16-2.571-.912-4.062-3.331-4.678a16.49,16.49,0,0,0-3.554-.188c-.888-.032-1.64-.233-1.629-1.281.011-1.084.826-1.2,1.683-1.2a9.338,9.338,0,0,0,3.658-.491A4.257,4.257,0,0,0-2218-724.7c-.3-1.832-1.67-2.913-3.823-3.066a8.56,8.56,0,0,0-5.825,1.837c-1.047.777-1.267.2-1.391-.659a1.871,1.871,0,0,1,.891-2.048,10.64,10.64,0,0,1,9.56-.9,5.247,5.247,0,0,1,3.5,4.756A6.317,6.317,0,0,1-2218.7-718.195Z" transform="translate(2289.026 730.283)" fill="#7CE3CB"></path><path id="Path_911" data-name="Path 911" d="M-2260.545-717.876c0-3.418-.015-6.837.017-10.255,0-.48-.352-1.179.4-1.411a1.861,1.861,0,0,1,1.774.542,2.414,2.414,0,0,1,.647,2.039q-.016,10.255-.008,20.511c0,1.362-.6,1.678-1.823.975a2.05,2.05,0,0,1-1-2c.02-3.468.008-6.936.008-10.4Z" transform="translate(2310.896 729.808)" fill="#7CE3CB"></path></svg>