<svg xmlns="http://www.w3.org/2000/svg" width="90.806" height="37.155" viewBox="0 0 90.806 37.155"><g id="Group_267" data-name="Group 267" transform="translate(-119.058 14.517)"><g id="Group_258" data-name="Group 258" transform="translate(0 0)"><path id="Path_883" data-name="Path 883" d="M-443.951-1222.432c1.609,1.858,2.186,4.136,2.924,6.34.032.1.082.2-.041.287a1.133,1.133,0,0,1-1.342-.461c-.293-.853-.561-1.716-.883-2.559a6.913,6.913,0,0,0-2-3.106,1.1,1.1,0,0,0-.74-.27c-1.343.011-2.686.02-4.028,0-.4-.007-.474.139-.47.5.016,1.81-.02,3.621.022,5.43.014.624-.354.473-.693.5-.371.025-.578-.008-.575-.5.024-4.217.013-8.434.014-12.651,0-.749.171-.911.935-.913,1.814-.006,3.628-.022,5.443-.014a4.264,4.264,0,0,1,4.032,2.692,3.694,3.694,0,0,1-2.148,4.552C-443.637-1222.555-443.772-1222.5-443.951-1222.432Zm-3.749-1v-.017c.78,0,1.559,0,2.339,0a3.184,3.184,0,0,0,2.05-.748,2.287,2.287,0,0,0,.221-3.444,3.383,3.383,0,0,0-2.554-1c-1.487-.017-2.974.005-4.461-.012-.337,0-.433.1-.43.429q.024,2.2,0,4.4c0,.3.065.412.387.4C-449.332-1223.447-448.516-1223.432-447.7-1223.432Z" transform="translate(599.55 1238.361)" fill="#002737"></path><path id="Path_889" data-name="Path 889" d="M-209.659-1224.843c0,1.5.013,3,0,4.506a4.742,4.742,0,0,1-4,4.435,5.257,5.257,0,0,1-5.806-2.722,4.686,4.686,0,0,1-.406-2.055c.006-2.878.013-5.757-.009-8.635,0-.453.118-.625.569-.554a2.087,2.087,0,0,0,.489,0c.222-.018.275.08.263.287-.157,2.912.028,5.829-.093,8.738a3.8,3.8,0,0,0,4.617,3.742,3.642,3.642,0,0,0,3.156-3.789c-.087-2.8-.011-5.612-.031-8.417,0-.444.1-.594.563-.571.734.037.727.008.724.741-.006,1.43,0,2.86,0,4.29Z" transform="translate(400.736 1238.38)" fill="#002737"></path><path id="Path_893" data-name="Path 893" d="M-94.962-1215.7c-1.29.057-1.291.058-1.778-1.044Q-99-1221.871-101.268-1227c-.072-.162-.147-.323-.261-.571-.739,1.673-1.443,3.262-2.143,4.853-.988,2.247-1.985,4.492-2.95,6.749-.156.365-.4.285-.657.286-.849.007-.855,0-.526-.745q2.817-6.393,5.636-12.785c.135-.307.3-.534.668-.528.347.006.5.238.626.517q2.9,6.594,5.8,13.187C-95.035-1215.942-95.01-1215.841-94.962-1215.7Z" transform="translate(304.825 1238.258)" fill="#002737"></path><path id="Path_894" data-name="Path 894" d="M-639.81-1229.9c-.911,2.072-1.784,4.051-2.652,6.032q-1.609,3.669-3.214,7.34c-.144.329-.257.7-.728.688s-.57-.374-.717-.706q-2.82-6.391-5.644-12.781c-.072-.163-.137-.328-.238-.573.428,0,.8.009,1.167,0,.227-.008.244.151.311.3q2.479,5.624,4.967,11.244c.035.079.076.155.121.245.171-.047.177-.192.22-.289q2.463-5.6,4.907-11.212a.385.385,0,0,1,.434-.291C-640.552-1229.885-640.226-1229.9-639.81-1229.9Z" transform="translate(772.062 1238.395)" fill="#002737"></path><path id="Path_895" data-name="Path 895" d="M-332.342-1222.3c0,1.973-.027,3.947.016,5.918.014.625-.348.476-.687.5-.38.026-.621.019-.617-.513.026-3.928,0-7.856.028-11.783,0-.5-.144-.593-.605-.581-1.269.032-2.54,0-3.81.021-.393.008-.485-.121-.475-.49.021-.735,0-.735.757-.735,3.248,0,6.5.017,9.743-.016.575-.006.47.3.484.63.015.362.045.636-.5.616-1.287-.046-2.576,0-3.864-.024-.388-.007-.48.112-.477.485C-332.332-1226.281-332.342-1224.29-332.342-1222.3Z" transform="translate(502.426 1238.463)" fill="#002737"></path><g id="Group_272" data-name="Group 272" transform="translate(122.025 -23)"><path id="Path_884" data-name="Path 884" d="M-1112.592-1222.477c1.575,1.84,2.168,4.09,2.9,6.279.1.3.027.381-.278.367-1.02-.045-.855.209-1.194-.831a27.707,27.707,0,0,0-1.15-3.1,8.02,8.02,0,0,0-.726-1.268,2.435,2.435,0,0,0-2.392-1.246,24.466,24.466,0,0,1-3.264.013c-.427-.013-.5.129-.5.518.02,1.81-.015,3.622.024,5.431.011.53-.26.492-.6.475-.316-.016-.672.135-.668-.461.036-4.289.041-8.577.047-12.866,0-.5.22-.734.717-.735,1.923,0,3.848-.05,5.771,0a4.13,4.13,0,0,1,3.523,1.938,3.6,3.6,0,0,1-1.661,5.238C-1112.206-1222.645-1112.373-1222.575-1112.592-1222.477Zm-3.706-1.007v-.017c.763,0,1.525,0,2.287,0a3.165,3.165,0,0,0,1.965-.68,2.31,2.31,0,0,0,.1-3.7,2.921,2.921,0,0,0-1.662-.74c-1.757-.164-3.519-.029-5.278-.078-.3-.008-.3.159-.3.375,0,1.485.01,2.971,0,4.456,0,.3.08.4.391.395C-1117.968-1223.5-1117.133-1223.484-1116.3-1223.484Z" transform="translate(1172.803 1238.412)" fill="#002737"></path><path id="Path_885" data-name="Path 885" d="M-1236.675-1222.406c1.56,1.827,2.17,4.087,2.891,6.3.1.308-.01.338-.261.33-1.075-.034-.877.193-1.225-.862a22.576,22.576,0,0,0-1.281-3.332,7.565,7.565,0,0,0-.674-1.11,2.324,2.324,0,0,0-2.234-1.135,24.406,24.406,0,0,1-3.264.015c-.441-.013-.587.094-.579.56.029,1.774-.019,3.549.029,5.323.015.569-.248.543-.642.549s-.611.006-.608-.519c.026-4.218.014-8.437.015-12.655,0-.724.172-.894.894-.9,1.815-.007,3.63-.016,5.445-.016a4.474,4.474,0,0,1,2.6.817,3.589,3.589,0,0,1-.1,6.1C-1235.979-1222.738-1236.329-1222.587-1236.675-1222.406Zm-3.736-1.021v-.017c.726,0,1.452-.008,2.178,0a3.6,3.6,0,0,0,.968-.122,2.712,2.712,0,0,0,2.107-2.348,2.665,2.665,0,0,0-1.9-2.51,4.211,4.211,0,0,0-1.391-.217c-1.471-.008-2.941.005-4.412-.009-.315,0-.448.057-.443.412q.03,2.2,0,4.4c0,.352.119.421.437.414C-1242.045-1223.441-1241.228-1223.428-1240.411-1223.428Z" transform="translate(1279.183 1238.357)" fill="#002737"></path><path id="Path_887" data-name="Path 887" d="M-1365.837-1222.991q0-3.07,0-6.14c0-.668.158-.826.834-.826,2.959,0,5.919.016,8.878-.016.524-.005.5.245.479.587-.017.318.131.665-.467.658-2.651-.033-5.3,0-7.952-.025-.459,0-.575.123-.565.571.03,1.358.041,2.718,0,4.075-.017.515.164.578.61.573,1.833-.024,3.668.014,5.5-.025.522-.011.5.241.48.585s.147.712-.488.7c-1.869-.041-3.74,0-5.61-.023-.38,0-.492.1-.486.485q.033,2.119,0,4.238c-.007.4.128.471.493.469,2.651-.015,5.3.006,7.952-.02.489,0,.575.17.545.591-.026.36.077.68-.521.673-2.941-.033-5.883-.014-8.824-.016-.714,0-.854-.145-.854-.862Q-1365.838-1219.867-1365.837-1222.991Z" transform="translate(1383.188 1238.457)" fill="#002737"></path><path id="Path_892" data-name="Path 892" d="M-1002.293-1227.579c-.656,1.482-1.272,2.864-1.882,4.249-1.076,2.444-2.154,4.888-3.214,7.339a.422.422,0,0,1-.473.319c-.307-.017-.616,0-.928,0-.084-.21.055-.354.122-.507q2.848-6.5,5.7-12.988c.129-.295.282-.555.651-.565.4-.012.554.27.691.583q2.833,6.443,5.671,12.883c.26.591.252.56-.374.6a.878.878,0,0,1-1.023-.648C-998.95-1220.043-1000.605-1223.751-1002.293-1227.579Z" transform="translate(1077.106 1238.254)" fill="#002737"></path><path id="Path_896" data-name="Path 896" d="M-1482.529-1222.321c0-1.938-.021-3.876.014-5.813.01-.524-.163-.62-.638-.608-1.288.031-2.578,0-3.866.019-.339.005-.427-.088-.422-.422.012-.8-.007-.8.792-.8,3.231,0,6.462.012,9.693-.013.491,0,.573.165.539.585-.029.357.075.687-.526.661-1.25-.056-2.5,0-3.757-.028-.465-.012-.609.087-.606.586.024,3.929.015,7.859.008,11.789,0,.161.115.431-.115.469a1.924,1.924,0,0,1-1.061-.04c-.064-.027-.054-.265-.054-.405Q-1482.532-1219.333-1482.529-1222.321Z" transform="translate(1487.441 1238.445)" fill="#002737"></path></g><path id="Path_899" data-name="Path 899" d="M-516.912-1222.939c0-2.17.011-4.341-.01-6.51,0-.4.078-.529.5-.509.729.036.73.007.73.752,0,4.25-.011,8.5.014,12.75,0,.527-.176.589-.633.6-.512.017-.617-.15-.611-.631C-516.9-1218.635-516.912-1220.787-516.912-1222.939Z" transform="translate(655.398 1238.447)" fill="#002737"></path></g></g></svg>