<svg xmlns="http://www.w3.org/2000/svg" id="Group_265" data-name="Group 265" width="111.416" height="72.188" viewBox="0 0 111.416 72.188"><path id="Path_846" data-name="Path 846" d="M182.034-902.247H180.4l3.451-15.254h2.463l3.452,15.254h-1.64l-.8-3.518h-4.479Zm3.025-13.423-1.914,8.493h3.841Zm9.389,13.423H192.8V-917.5h3.553a3.994,3.994,0,0,1,2.781.863,3.125,3.125,0,0,1,.945,2.426v3.987a3.1,3.1,0,0,1-.942,2.424,4,4,0,0,1-2.784.856h-1.9Zm0-13.846v7.75h1.9q2.087,0,2.086-1.882v-3.987a1.785,1.785,0,0,0-.539-1.388,2.218,2.218,0,0,0-1.548-.492Zm11.5,8.377-3.875-9.786h1.743l2.955,7.863,2.959-7.863h1.73l-3.872,9.81v5.445h-1.64Zm10.2,5.468h-2.109v-2.579h2.109Zm5.984,0h-1.64V-917.5h6.454v1.409h-4.813v5.4H226v1.409h-3.874Zm9.729,0h-1.639V-917.5h1.639Zm6.328,0h-1.639V-917.5h.7l.582,1.524a3.482,3.482,0,0,1,3.13-1.881q3.448,0,3.449,3.289v12.322h-1.637v-12.322a2.176,2.176,0,0,0-.39-1.385,1.726,1.726,0,0,0-1.422-.493,2.772,2.772,0,0,0-1.9.8,2.2,2.2,0,0,0-.869,1.55Zm10.213-2.936v-2.347q0-3.289,3.378-3.289h2.718v-3.842a1.656,1.656,0,0,0-.539-1.316,2.366,2.366,0,0,0-1.594-.47q-2.085,0-2.086,1.786v1.375h-1.649v-1.283a3.146,3.146,0,0,1,.929-2.43,4.009,4.009,0,0,1,2.807-.86,4.106,4.106,0,0,1,2.833.86,3.109,3.109,0,0,1,.95,2.43v12.322h-.711l-.605-1.5a3.89,3.89,0,0,1-1.29,1.353,3.236,3.236,0,0,1-1.762.5q-3.378,0-3.378-3.289Zm1.639-2.347v2.347a2.242,2.242,0,0,0,.377,1.388,1.62,1.62,0,0,0,1.362.493,2.674,2.674,0,0,0,1.828-.761,2.323,2.323,0,0,0,.889-1.521v-3.829h-2.718a1.621,1.621,0,0,0-1.362.493,2.242,2.242,0,0,0-.377,1.388Zm12.206,5.283H260.6V-917.5h.7l.585,1.524a3.483,3.483,0,0,1,3.131-1.881q3.448,0,3.448,3.289v12.322h-1.639v-12.322a2.191,2.191,0,0,0-.387-1.385,1.728,1.728,0,0,0-1.422-.493,2.769,2.769,0,0,0-1.9.8,2.2,2.2,0,0,0-.869,1.55Zm10.325-2.936v-9.386a3.087,3.087,0,0,1,.962-2.43,4.23,4.23,0,0,1,2.89-.86,4.319,4.319,0,0,1,2.913.86,3.051,3.051,0,0,1,.984,2.43v2.225h-1.639v-2.225q0-1.878-2.235-1.878t-2.235,1.878v9.386q0,1.882,2.235,1.882t2.235-1.882v-1.292h1.639v1.292a3.086,3.086,0,0,1-.962,2.43,4.228,4.228,0,0,1-2.89.86,4.32,4.32,0,0,1-2.912-.86,3.051,3.051,0,0,1-.985-2.43Zm11.495,0v-9.386a3.083,3.083,0,0,1,.965-2.43,4.219,4.219,0,0,1,2.886-.86,4.316,4.316,0,0,1,2.913.86,3.053,3.053,0,0,1,.985,2.43v5.157H285.7v4.229q0,1.882,2.235,1.882t2.235-1.882v-1.292h1.639v1.292a3.089,3.089,0,0,1-.962,2.43,4.22,4.22,0,0,1-2.89.86,4.305,4.305,0,0,1-2.909-.86,3.045,3.045,0,0,1-.989-2.43Zm1.64-9.386v3.749h4.47v-3.749q0-1.878-2.235-1.878t-2.235,1.878Zm0,0" transform="translate(-180.395 974.081)" fill="#fff"></path><path id="Path_847" data-name="Path 847" d="M-6.637-841.065l2.721,2.384v11.313l-.349-.252,0,0-8.7-6.325Zm0,0" transform="translate(59.632 872.717)" fill="#fff" fill-rule="evenodd"></path><path id="Path_848" data-name="Path 848" d="M-47.666-843.538h3.172l-6.067,6.827-9.389-6.827Zm0,0" transform="translate(96.102 874.636)" fill="#fff" fill-rule="evenodd"></path><path id="Path_849" data-name="Path 849" d="M-68.106-831.812H-81.035q2.016-3.235,4.035-6.468Zm0,0" transform="translate(112.468 870.555)" fill="#fff" fill-rule="evenodd"></path><path id="Path_850" data-name="Path 850" d="M-37.319-963.1q-3.184,5.225-6.4,10.432H-55.988q9.317-14.911,18.669-29.8Zm0,0" transform="translate(93.027 982.468)" fill="#fff" fill-rule="evenodd"></path><path id="Path_851" data-name="Path 851" d="M35.05-841.065l-2.722,2.384v11.313l.349-.252,0,0,8.7-6.325Zm0,0" transform="translate(24.48 872.717)" fill="#fff" fill-rule="evenodd"></path><path id="Path_852" data-name="Path 852" d="M53.111-843.538H49.938L56-836.711l9.389-6.827Zm0,0" transform="translate(10.812 874.636)" fill="#fff" fill-rule="evenodd"></path><path id="Path_853" data-name="Path 853" d="M82.309-831.812h12.93q-2.017-3.235-4.036-6.468Zm0,0" transform="translate(-14.313 870.555)" fill="#fff" fill-rule="evenodd"></path><path id="Path_854" data-name="Path 854" d="M33.106-963.1q3.186,5.225,6.4,10.432H51.776q-9.319-14.911-18.67-29.8Zm0,0" transform="translate(23.876 982.468)" fill="#fff" fill-rule="evenodd"></path></svg>