<svg xmlns="http://www.w3.org/2000/svg" width="95.295" height="107.742" viewBox="0 0 95.295 107.742" fill="rgba(127,196,78,1)"><g id="Group_397" data-name="Group 397" transform="translate(-219.678 131.701)"><path id="Path_1185" data-name="Path 1185" d="M353.875-131.7c-.027,1.994-.021,3.989-.088,5.982-.085,2.514-.027,5.028-.092,7.542-.056,2.19-.023,4.38-.092,6.568-.057,1.8,0,3.6-.075,5.392-.081,2.079-.012,4.159-.094,6.235-.066,1.686,0,3.372-.078,5.055-.082,1.77-.006,3.541-.085,5.308-.076,1.713-.027,3.427-.074,5.139-.094,3.468-.1,6.937-.177,10.4-.047,2.149-.016,4.3-.081,6.446-.077,2.555-.026,5.111-.1,7.665-.05,1.8,0,3.6-.077,5.392-.087,2.05,0,4.1-.089,6.151-.074,1.77,0,3.541-.082,5.308s0,3.512-.083,5.266c-.077,1.727-.005,3.456-.082,5.181-.078,1.756,0,3.513-.087,5.265-.055,1.147,0,2.3-.151,3.442-.033-1.09-.081-2.18-.1-3.269-.041-2.781-.032-5.563-.113-8.342-.051-1.77,0-3.541-.079-5.308-.072-1.728-.006-3.456-.081-5.181-.091-2.107-.028-4.214-.083-6.32-.091-3.482-.1-6.965-.173-10.447-.056-2.584-.012-5.169-.091-7.752-.065-2.135-.015-4.271-.088-6.4-.059-1.728-.008-3.456-.078-5.181-.073-1.784-.012-3.569-.084-5.35-.068-1.685-.031-3.37-.073-5.055-.089-3.482-.11-6.965-.177-10.447-.032-1.7,0-3.4-.071-5.1-.09-2.162-.01-4.325-.1-6.485-.076-1.938-.013-3.877-.08-5.814-.094-2.724-.047-5.449-.1-8.173-.02-1.039-.073-2.077-.044-3.116Z" transform="translate(-84.877)"></path><path id="Path_1186" data-name="Path 1186" d="M219.678-5.85c1-.009,1.994-.015,2.991-.028.223,0,.293.092.275.31q-.274,3.42-.535,6.841c-.154,2.015-.3,4.031-.457,6.045-.183,2.294-.381,4.586-.574,6.879a.749.749,0,0,1-.058.152,7.172,7.172,0,0,1-.2-1.7c-.25-3.063-.46-6.129-.71-9.192-.233-2.853-.512-5.7-.674-8.561a1.592,1.592,0,0,0-.052-.246Z" transform="translate(0 -81.585)"></path><path id="Path_1187" data-name="Path 1187" d="M333.523-19.053a1.783,1.783,0,0,1-.143-.74c-.033-2.907-.027-5.816-.117-8.722-.06-1.938-.025-3.877-.079-5.814-.1-3.594-.109-7.189-.18-10.783-.047-2.36-.03-4.72-.084-7.079-.073-3.229-.113-6.459-.173-9.688-.029-1.545-.026-3.089-.069-4.634-.089-3.215-.106-6.431-.178-9.646-.044-1.938-.02-3.877-.076-5.814-.1-3.58-.113-7.162-.181-10.742-.039-2.023-.014-4.046-.082-6.067-.066-1.966-.034-3.933-.081-5.9q-.114-4.781-.173-9.562c-.015-1.123-.033-2.247-.068-3.369-.012-.394.139-.514.517-.5.8.021,1.6.017,2.4,0,.3-.007.4.1.394.389q-.075,3.9-.139,7.792c-.023,1.489.012,2.98-.045,4.468-.071,1.868-.035,3.737-.084,5.6-.084,3.2-.108,6.4-.17,9.6-.061,3.145-.106,6.29-.162,9.436-.072,4.017-.118,8.033-.183,12.05-.032,1.938-.023,3.877-.075,5.814-.095,3.567-.114,7.134-.175,10.7-.054,3.173-.1,6.347-.162,9.52-.062,3.2-.1,6.4-.166,9.6-.079,3.96-.148,7.92-.172,11.881C333.614-20.541,333.558-19.827,333.523-19.053Z" transform="translate(-72.725 -8.807)"></path><path id="Path_1188" data-name="Path 1188" d="M370.872-19.068c-.135-.107-.085-.257-.086-.387-.044-3.652-.062-7.3-.131-10.956-.062-3.243-.11-6.486-.172-9.73-.029-1.545-.026-3.089-.068-4.633-.088-3.229-.107-6.459-.179-9.687-.039-1.77-.025-3.539-.072-5.307-.1-3.735-.115-7.47-.184-11.205-.042-2.275-.031-4.551-.082-6.825-.075-3.327-.113-6.655-.174-9.983-.027-1.488-.03-2.977-.068-4.465-.084-3.285-.113-6.571-.179-9.856-.029-1.446-.008-2.894-.069-4.338-.088-2.092-.018-4.186-.1-6.277-.063-1.629-.018-3.258-.074-4.886-.013-.383.107-.526.5-.514.758.024,1.517.006,2.276.008.517,0,.548.032.538.552-.048,2.386-.107,4.772-.146,7.159-.044,2.654-.056,5.309-.11,7.962-.081,3.974-.124,7.948-.184,11.922-.03,1.952-.024,3.9-.075,5.855-.094,3.566-.114,7.133-.176,10.7-.055,3.145-.1,6.29-.162,9.435-.061,3.2-.1,6.4-.166,9.6-.079,3.931-.116,7.864-.181,11.8-.033,2.036.005,4.075-.086,6.109-.082,1.825-.019,3.649-.108,5.474-.076,1.555-.022,3.116-.048,4.674-.042,2.513-.1,5.026-.156,7.538C370.947-19.243,370.988-19.135,370.872-19.068Z" transform="translate(-96.973 -8.807)"></path><path id="Path_1189" data-name="Path 1189" d="M389.547-13.607c-.117-.119-.064-.265-.066-.4-.038-2.486-.026-4.973-.123-7.456-.063-1.628-.027-3.256-.105-4.884-.085-1.779-.03-3.565-.057-5.348-.047-3.145-.091-6.29-.17-9.435-.069-2.723-.108-5.446-.165-8.169-.059-2.822-.107-5.644-.167-8.465-.064-2.947-.108-5.894-.166-8.841-.075-3.862-.127-7.723-.186-11.585-.042-2.78-.108-5.559-.161-8.339q-.082-4.211-.171-8.423c-.032-1.39-.027-2.78-.072-4.17-.01-.32.109-.429.408-.427q1.244.008,2.486,0c.3,0,.43.136.423.437q-.079,3.305-.148,6.611c-.013.618-.008,1.236-.018,1.854q-.045,2.843-.1,5.686c-.053,2.78-.093,5.559-.17,8.338-.1,3.481-.138,6.963-.181,10.445-.038,3.089-.069,6.179-.167,9.266-.053,1.657-.024,3.314-.078,4.97-.091,2.779-.111,5.559-.172,8.339-.06,2.737-.1,5.475-.165,8.212-.073,3.159-.109,6.318-.178,9.477-.043,1.952-.009,3.906-.085,5.855-.081,2.049-.009,4.1-.154,6.147C389.637-13.8,389.681-13.679,389.547-13.607Z" transform="translate(-109.101 -20.85)"></path><path id="Path_1190" data-name="Path 1190" d="M314.689-13.689c0-.488.007-.976,0-1.463-.04-2.331-.088-4.662-.125-6.993-.029-1.8-.038-3.6-.067-5.392-.051-3.2-.094-6.4-.172-9.606-.066-2.724-.113-5.448-.166-8.172-.056-2.836-.1-5.673-.171-8.509-.04-1.6-.023-3.2-.074-4.8-.11-3.482-.13-6.965-.184-10.448-.048-3.1-.112-6.207-.167-9.311-.049-2.794-.111-5.588-.165-8.383q-.079-4.065-.167-8.129-.044-2.043-.064-4.086c-.006-.518.039-.56.544-.563q1.1-.007,2.192,0c.532,0,.578.043.569.583-.052,2.794-.111,5.588-.163,8.382-.036,1.938-.047,3.877-.1,5.814-.077,2.752-.1,5.5-.17,8.256-.055,2.079-.015,4.159-.093,6.235-.064,1.7-.028,3.4-.078,5.1-.091,3.075-.114,6.151-.175,9.226-.055,2.78-.1,5.56-.164,8.34-.06,2.752-.1,5.5-.165,8.256-.072,3.159-.11,6.319-.177,9.479-.042,1.953-.027,3.905-.079,5.857q-.128,4.717-.17,9.436a8.393,8.393,0,0,1-.1.9Z" transform="translate(-60.618 -20.847)"></path><path id="Path_1191" data-name="Path 1191" d="M296.092-8.111a32.642,32.642,0,0,1-.141-3.684c-.059-2.752-.1-5.5-.176-8.255-.065-2.26-.108-4.519-.165-6.779-.067-2.639-.128-5.278-.169-7.917-.037-2.373-.081-4.745-.162-7.117-.069-2.021-.046-4.043-.1-6.063-.064-2.358-.112-4.716-.165-7.074q-.077-3.5-.165-6.99c-.06-2.47-.124-4.941-.163-7.412s-.106-4.941-.161-7.412c-.026-1.164-.042-2.328-.084-3.492-.014-.4.116-.562.526-.552.772.02,1.545.013,2.318,0,.338,0,.482.126.472.475-.081,2.708-.162,5.417-.224,8.125-.034,1.489-.022,2.978-.049,4.467-.048,2.752-.088,5.5-.17,8.255q-.112,3.727-.166,7.454c-.039,2.429-.107,4.857-.164,7.285-.054,2.3-.1,4.6-.166,6.906-.084,2.948-.137,5.9-.176,8.845-.035,2.626-.1,5.251-.162,7.876-.056,2.569-.079,5.139-.184,7.706C296.223-11.679,296.308-9.894,296.092-8.111Z" transform="translate(-48.476 -32.968)"></path><path id="Path_1192" data-name="Path 1192" d="M408.346-8a.8.8,0,0,1-.147-.6c-.039-2.05-.049-4.1-.115-6.151-.081-2.541-.111-5.083-.174-7.624-.065-2.682-.1-5.364-.173-8.046-.046-1.727-.034-3.455-.085-5.182-.07-2.4-.115-4.8-.167-7.2q-.076-3.454-.164-6.907c-.064-2.583-.128-5.166-.168-7.75-.036-2.331-.1-4.661-.157-6.992q-.128-4.865-.186-9.732c-.025-2.008-.1-4.015-.149-6.022-.014-.61.018-.631.643-.633.731,0,1.461.006,2.192,0,.314,0,.464.113.453.447-.031.969-.046,1.938-.063,2.907-.033,1.868-.04,3.736-.1,5.6-.083,2.625-.114,5.251-.175,7.877-.054,2.288-.117,4.577-.158,6.865-.043,2.4-.093,4.8-.168,7.2-.09,2.892-.124,5.784-.177,8.677-.051,2.752-.126,5.5-.164,8.257-.032,2.345-.1,4.689-.159,7.034q-.087,3.706-.172,7.413c-.055,2.344-.083,4.69-.175,7.033C408.4-10.381,408.419-9.231,408.346-8Z" transform="translate(-121.241 -32.976)"></path><path id="Path_1193" data-name="Path 1193" d="M426.971-2.467c-.031-.418-.078-.836-.089-1.254-.068-2.625-.111-5.251-.2-7.876-.06-1.881-.106-3.762-.166-5.642-.1-3.1-.169-6.2-.251-9.3q-.1-3.77-.177-7.539c-.06-3-.148-6.008-.248-9.012-.062-1.866-.121-3.732-.161-5.6-.071-3.243-.178-6.485-.266-9.727-.028-1.025-.038-2.05-.073-3.074-.013-.36.11-.5.483-.5.8.02,1.6.013,2.4,0,.3,0,.424.1.413.419-.059,1.768-.1,3.537-.147,5.305-.064,2.668-.1,5.336-.188,8q-.1,3.137-.166,6.275c-.063,2.948-.162,5.9-.247,8.842-.053,1.853-.1,3.705-.164,5.558-.09,2.652-.116,5.306-.188,7.959-.084,3.1-.176,6.2-.244,9.307-.041,1.909-.1,3.818-.165,5.726-.022.713-.062,1.425-.094,2.137Z" transform="translate(-133.356 -45.2)"></path><path id="Path_1194" data-name="Path 1194" d="M277.372-2.373c-.032-.374-.084-.747-.094-1.122-.043-1.656-.051-3.314-.115-4.969-.12-3.1-.18-6.2-.252-9.3q-.081-3.516-.173-7.031c-.056-2.26-.095-4.52-.174-6.779-.065-1.852-.109-3.7-.165-5.556-.093-3.087-.169-6.175-.255-9.262-.1-3.578-.2-7.156-.257-10.735-.024-1.445-.085-2.89-.15-4.334-.018-.406.124-.544.528-.531.8.025,1.6.011,2.4.006.265,0,.376.092.362.377-.033.687-.039,1.375-.053,2.063-.037,1.839-.048,3.679-.113,5.517q-.11,3.136-.167,6.273c-.035,1.922-.107,3.845-.161,5.767-.083,2.9-.17,5.809-.246,8.714-.067,2.582-.1,5.166-.186,7.748-.068,2.133-.129,4.266-.166,6.4-.034,1.922-.107,3.845-.163,5.767s-.107,3.845-.166,5.767c-.054,1.738-.116,3.475-.174,5.213Z" transform="translate(-36.349 -45.197)"></path><path id="Path_1195" data-name="Path 1195" d="M258.687,3.177c-.14-.083-.106-.192-.109-.282q-.051-1.495-.095-2.989c-.095-3.214-.183-6.428-.284-9.642-.072-2.273-.145-4.546-.245-6.818-.139-3.141-.233-6.285-.336-9.428-.065-1.965-.13-3.929-.179-5.895-.058-2.372-.158-4.742-.244-7.113-.046-1.262-.092-2.525-.157-3.786-.02-.387.118-.522.506-.511.786.022,1.573.017,2.36,0,.327-.006.457.115.444.443-.078,1.991-.143,3.984-.224,5.975-.036.869-.045,1.74-.086,2.609-.1,2.005-.136,4.013-.2,6.02-.087,2.793-.169,5.586-.261,8.379q-.117,3.578-.251,7.156c-.081,2.259-.172,4.517-.248,6.775q-.138,4.126-.258,8.252A2.831,2.831,0,0,1,258.687,3.177Z" transform="translate(-24.223 -57.327)"></path><path id="Path_1196" data-name="Path 1196" d="M445.634,3.128c-.04-.81-.09-1.548-.111-2.287-.073-2.5-.128-5-.206-7.5-.07-2.245-.163-4.489-.243-6.734q-.127-3.514-.247-7.029c-.093-2.821-.173-5.642-.267-8.463-.076-2.273-.165-4.546-.246-6.819q-.125-3.493-.244-6.987c-.019-.573,0-.589.581-.59.745,0,1.49.013,2.234-.005.361-.009.508.113.491.486q-.163,3.681-.307,7.363c-.033.828-.048,1.656-.079,2.484-.1,2.54-.137,5.082-.214,7.623-.073,2.428-.163,4.855-.25,7.282-.079,2.2-.153,4.405-.249,6.607-.123,2.82-.189,5.642-.266,8.463-.052,1.908-.152,3.815-.232,5.723A.4.4,0,0,1,445.634,3.128Z" transform="translate(-145.495 -57.33)"></path><path id="Path_1197" data-name="Path 1197" d="M464.327,8.683c-.036-.556-.081-1.111-.107-1.667-.1-2.173-.187-4.347-.291-6.52-.15-3.14-.316-6.279-.467-9.418-.1-2.018-.173-4.038-.268-6.057-.136-2.916-.288-5.831-.418-8.748-.047-1.06-.051-.845.828-.857.66-.009,1.321.012,1.98-.007.366-.011.5.123.483.492-.173,3.336-.328,6.672-.507,10.007-.107,1.977-.179,3.954-.263,5.932-.127,2.972-.315,5.941-.462,8.912-.108,2.187-.189,4.375-.288,6.562-.021.457-.067.913-.1,1.37Z" transform="translate(-157.617 -69.45)"></path><path id="Path_1198" data-name="Path 1198" d="M239.987,8.74a.317.317,0,0,1-.107-.3c-.1-2.314-.176-4.628-.287-6.941-.144-2.985-.319-5.968-.467-8.953-.079-1.584-.121-3.17-.2-4.755-.123-2.536-.265-5.072-.391-7.608-.07-1.415-.119-2.832-.191-4.248-.019-.374.1-.534.5-.521.758.024,1.516,0,2.275.008.5,0,.55.066.525.561q-.248,4.939-.488,9.88c-.15,3.139-.275,6.28-.443,9.418q-.2,3.678-.337,7.358c-.069,1.823-.167,3.645-.255,5.467A1.626,1.626,0,0,1,239.987,8.74Z" transform="translate(-12.103 -69.452)"></path><path id="Path_1199" data-name="Path 1199" d="M483.055,14.3c-.048-.5-.1-.964-.135-1.428q-.292-3.692-.578-7.384-.257-3.272-.519-6.544c-.112-1.426-.219-2.854-.332-4.28-.039-.494-.005-.535.478-.534.758,0,1.517.014,2.275,0,.362-.008.51.109.481.486-.108,1.385-.192,2.772-.3,4.156-.118,1.51-.259,3.019-.379,4.529-.2,2.475-.386,4.951-.58,7.426q-.127,1.615-.264,3.23C483.191,14.053,483.235,14.175,483.055,14.3Z" transform="translate(-169.754 -81.585)"></path></g></svg>