<svg xmlns="http://www.w3.org/2000/svg" id="Group_261" data-name="Group 261" width="154.487" height="40.151" viewBox="0 0 154.487 40.151"><path id="Path_912" data-name="Path 912" d="M-5762-1499.464c-.044-.11-.157-.083-.236-.105a3.129,3.129,0,0,1-2.352-3.32.369.369,0,0,0-.229-.406q-5.4-3.106-10.787-6.22a5.629,5.629,0,0,1-2.865-4.155,5.373,5.373,0,0,1-.06-.864q-.007-4.956,0-9.912c0-.428-.031-.374.388-.376s.847.005,1.271,0c.159,0,.232.044.217.21-.008.092,0,.186,0,.279,0,3.232.007,6.464-.006,9.7a4.1,4.1,0,0,0,.86,2.589,3.288,3.288,0,0,0,1.026.889c3.614,2.026,7.182,4.133,10.777,6.192a.687.687,0,0,1,.08.048.234.234,0,0,0,.351-.029,2.828,2.828,0,0,1,.682-.479,3.156,3.156,0,0,1,4.562,2.4,3.178,3.178,0,0,1-2.264,3.443c-.1.029-.228.009-.293.124Zm-.745-3.177a1.3,1.3,0,0,0,1.293,1.307,1.324,1.324,0,0,0,1.3-1.282,1.323,1.323,0,0,0-1.271-1.306A1.3,1.3,0,0,0-5762.748-1502.64Z" transform="translate(5780.747 1539.615)" fill="#4a9ccb"></path><path id="Path_913" data-name="Path 913" d="M-3033.113-1570.776c-1,0-2,0-3,.011-.154,0-.225-.039-.218-.208.011-.278,0-.557,0-.836q0-8.112,0-16.223c0-.439-.05-.39.4-.391.826,0,1.652,0,2.479,0,.113,0,.226-.01.339-.015Z" transform="translate(3187.6 1599.771)" fill="#4a9ccb"></path><path id="Path_914" data-name="Path 914" d="M-5653.364-1654.278a11.531,11.531,0,0,1-11.5,11.526,11.524,11.524,0,0,1-11.564-11.5,11.541,11.541,0,0,1,11.4-11.538A11.541,11.541,0,0,1-5653.364-1654.278Zm-11.551,9.052a9.03,9.03,0,0,0,9.059-9.041,9.024,9.024,0,0,0-9.021-9.041,9.084,9.084,0,0,0-9.071,9.032A9.06,9.06,0,0,0-5664.915-1645.226Z" transform="translate(5684.185 1672.916)" fill="#4a9ccb"></path><path id="Path_915" data-name="Path 915" d="M-4992-1573.284a2.183,2.183,0,0,0,.17-.578c.217-.861.535-1.69.817-2.531q1.933-5.762,3.882-11.519c.108-.323.064-.279.38-.28.609,0,1.218,0,1.826,0,.073.133-.013.233-.047.332q-1.49,4.361-2.987,8.72-1.425,4.155-2.85,8.309c-.11.319-.032.295-.4.3h-1.426c-.31,0-.31,0-.4-.285q-1.046-3.222-2.09-6.443-1.249-3.855-2.5-7.709a.461.461,0,0,0-.137-.275c-.029.076-.058.142-.08.211q-2.3,7.089-4.606,14.179c-.019.059-.044.116-.058.176a.171.171,0,0,1-.2.148c-.579,0-1.157-.008-1.736,0-.167,0-.177-.109-.212-.212q-.6-1.74-1.2-3.481-2.322-6.773-4.642-13.548a1.275,1.275,0,0,1-.108-.388.559.559,0,0,1,.3-.03q.743,0,1.488,0c.413,0,.327-.055.46.341q.937,2.769,1.861,5.542,1.323,3.944,2.644,7.889c.12.361.213.731.318,1.095.106,0,.082-.08.091-.131a25.316,25.316,0,0,1,.931-3.173q1.783-5.633,3.586-11.258c.019-.059.042-.117.055-.177.021-.1.082-.13.178-.13.63,0,1.26,0,1.891,0,.144,0,.161.095.193.2.2.639.406,1.277.609,1.916q1.851,5.822,3.7,11.644C-4992.184-1574.068-4992.106-1573.684-4992-1573.284Z" transform="translate(5054.557 1599.544)" fill="#4a9ccb"></path><path id="Path_916" data-name="Path 916" d="M-3698.914-1570.773a.666.666,0,0,1,.091-.33q1.562-3.759,3.125-7.517,1.967-4.727,3.937-9.454c.182-.436.073-.364.551-.366.8,0,1.591.005,2.387-.006a.345.345,0,0,1,.389.249q1.8,4.363,3.624,8.718,1.738,4.176,3.474,8.354a.769.769,0,0,1,.1.319c-.075.056-.16.031-.239.032-.961,0-1.922,0-2.883.005a.333.333,0,0,1-.366-.242c-.391-.977-.794-1.949-1.194-2.923-.1-.251-.1-.252-.383-.252h-7.563c-.269,0-.27,0-.375.256-.4.963-.8,1.925-1.186,2.892a.367.367,0,0,1-.408.269c-.94-.013-1.881-.005-2.821-.005Zm5.947-6.156c.315.059,5.574.047,5.814-.018-.974-2.415-1.995-4.808-2.95-7.243a4.063,4.063,0,0,1-.2.628q-1.041,2.539-2.077,5.081c-.171.42-.346.839-.514,1.26C-3692.931-1577.128-3693-1577.041-3692.967-1576.929Z" transform="translate(3814.164 1599.778)" fill="#4a9ccb"></path><path id="Path_917" data-name="Path 917" d="M-3331.867-1579.408q0-4.228,0-8.457c0-.4-.041-.37.362-.37,2.387,0,4.773-.012,7.16,0a6.141,6.141,0,0,1,3.891,1.3,5.581,5.581,0,0,1,2.11,3.829,6.488,6.488,0,0,1-.529,3.6,5.492,5.492,0,0,1-3.744,3.081,7.05,7.05,0,0,1-1.872.211c-1.25,0-2.5,0-3.75,0l-.248,0c-.1,0-.147.055-.145.155,0,.083,0,.165,0,.248q0,2.4,0,4.8c0,.052,0,.1,0,.155,0,.267,0,.27-.272.27q-1.333,0-2.666,0c-.325,0-.3,0-.3-.311q0-4.259,0-8.519Zm3.235-2.816h0q0,1.44,0,2.88c0,.251,0,.255.257.256,1.281,0,2.561,0,3.842,0a2.986,2.986,0,0,0,1.23-.271,3.194,3.194,0,0,0,1.5-4.134,2.884,2.884,0,0,0-2.65-1.832c-1.31-.042-2.623-.01-3.935-.009-.247,0-.25,0-.25.263Q-3328.634-1583.649-3328.632-1582.225Z" transform="translate(3467.068 1599.583)" fill="#4a9ccb"></path><path id="Path_918" data-name="Path 918" d="M-3947.917-1581.666a12.974,12.974,0,0,1,1.833.318,6.6,6.6,0,0,1,1.574.636,4.3,4.3,0,0,1,2.078,2.627,6.106,6.106,0,0,1-.185,4.1,5.819,5.819,0,0,1-3.583,3.341,7.622,7.622,0,0,1-5.656-.179,5.442,5.442,0,0,1-3.312-4.156,9.007,9.007,0,0,1-.159-1.383c-.007-.136.021-.206.183-.2q1.426.01,2.852,0c.135,0,.178.049.187.175a4.813,4.813,0,0,0,.114.8,3.05,3.05,0,0,0,2.571,2.366,3.675,3.675,0,0,0,2.039-.183,3.1,3.1,0,0,0,1.7-4.081,3.068,3.068,0,0,0-2.2-1.741,4.267,4.267,0,0,0-1.1-.134c-.7,0-1.405,0-2.108,0-.279,0-.28,0-.281-.292,0-.351.008-.7,0-1.053a.708.708,0,0,1,.176-.5q1.664-2.041,3.315-4.094c.07-.087.138-.177.221-.282a.6.6,0,0,0-.334-.038q-3.023,0-6.045,0c-.358,0-.333.053-.333-.328q0-1.007,0-2.014c0-.344-.009-.3.3-.3h8.835c.434,0,.868,0,1.3,0,.217,0,.221.005.223.225,0,.413-.006.826,0,1.239a.575.575,0,0,1-.158.416q-1.807,2.1-3.605,4.215C-3947.61-1582.029-3947.742-1581.873-3947.917-1581.666Z" transform="translate(4056.64 1599.622)" fill="#4a9ccb"></path><path id="Path_919" data-name="Path 919" d="M-4243.6-1591.824a5.842,5.842,0,0,1,2.07-2.281,5.767,5.767,0,0,1,3.6-.874,6.511,6.511,0,0,1,5.813,5.169,7.175,7.175,0,0,1-1.1,6,6.078,6.078,0,0,1-5.646,2.723,5.6,5.6,0,0,1-4.635-2.9.826.826,0,0,0-.2-.288c0,.121,0,.207,0,.294,0,.775,0,1.549,0,2.324,0,.222,0,.226-.214.227q-.744,0-1.488,0c-.21,0-.21-.006-.215-.229,0-.052,0-.1,0-.155q0-8.753,0-17.506c0-.455-.06-.388.395-.392s.889,0,1.333,0c.257,0,.285-.059.283.289-.012,2.416.029,4.833-.037,7.249A.789.789,0,0,0-4243.6-1591.824Zm9.717,3.818a5.4,5.4,0,0,0-.323-1.915,4.785,4.785,0,0,0-8.088-1.616,5.053,5.053,0,0,0-1,5.351,4.8,4.8,0,0,0,7.417,2.315A4.993,4.993,0,0,0-4233.881-1588.006Z" transform="translate(4331.141 1610.438)" fill="#4a9ccb"></path><path id="Path_920" data-name="Path 920" d="M-4531.886-1503.355a.732.732,0,0,1-.1.39,6.1,6.1,0,0,1-4.6,3.76,6.6,6.6,0,0,1-7.821-5.194,7.014,7.014,0,0,1,1.4-6.178,6.291,6.291,0,0,1,5.476-2.418,6.461,6.461,0,0,1,5.946,5.074,6.5,6.5,0,0,1,.151,2.121c-.025.235.023.242-.276.24h-.217q-5.145,0-10.291,0c-.364,0-.4-.088-.325.367a4.883,4.883,0,0,0,2.089,3.478,4.506,4.506,0,0,0,4.513.364,3.308,3.308,0,0,0,1.742-1.727.416.416,0,0,1,.465-.282C-4533.12-1503.345-4532.511-1503.355-4531.886-1503.355Zm-10.587-3.984c.078.005.139.012.2.012h4.464q2.062,0,4.123,0c.262,0,.26,0,.221-.26a3.549,3.549,0,0,0-.7-1.666,4.587,4.587,0,0,0-4.229-1.853A4.522,4.522,0,0,0-4542.473-1507.34Z" transform="translate(4613.883 1528.441)" fill="#4a9ccb"></path><path id="Path_921" data-name="Path 921" d="M-5819.207-1787.644a3.128,3.128,0,0,1,3.293-3.142,2.732,2.732,0,0,1,1.568.558,3.845,3.845,0,0,1,.5.354c.077.08.148.023.22-.019.424-.248.851-.494,1.275-.742l6.65-3.9c.882-.517,1.766-1.031,2.644-1.554a5.713,5.713,0,0,1,3.1-.839,5.489,5.489,0,0,1,2.661.725q4.336,2.494,8.667,5c.273.157.212.159.091.37-.217.376-.431.752-.649,1.127-.145.249-.148.249-.393.109l-2.415-1.393c-2.039-1.177-4.074-2.36-6.118-3.528a3.718,3.718,0,0,0-3.944.015c-2,1.162-3.991,2.339-5.987,3.507-.542.317-1.091.623-1.632.941-1.013.6-2.02,1.2-3.036,1.791a.375.375,0,0,0-.213.419,3.113,3.113,0,0,1-2.254,3.238A3.143,3.143,0,0,1-5819.207-1787.644Zm4.428.006a1.3,1.3,0,0,0-1.274-1.294,1.3,1.3,0,0,0-1.295,1.3,1.282,1.282,0,0,0,1.272,1.288A1.294,1.294,0,0,0-5814.779-1787.638Z" transform="translate(5819.208 1796.928)" fill="#4a9ccb"></path><path id="Path_922" data-name="Path 922" d="M-5373.057-1680.83a3.144,3.144,0,0,1-1.941,2.856c-.288.132-.291.125-.291.442q0,6.244,0,12.488a5.41,5.41,0,0,1-1.245,3.55,5.917,5.917,0,0,1-1.577,1.344c-.965.562-1.931,1.122-2.893,1.689-1.905,1.125-3.829,2.219-5.745,3.327-.045.026-.091.05-.134.077-.074.046-.134.042-.181-.039l-.8-1.4a.117.117,0,0,1,.057-.179c.107-.062.213-.126.321-.188l5.753-3.323c.878-.507,1.762-1,2.636-1.519a3.71,3.71,0,0,0,1.949-3.368c.01-4.163,0-8.325.009-12.488a.383.383,0,0,0-.289-.421,3.105,3.105,0,0,1-1.932-3.13,3.148,3.148,0,0,1,2.469-2.837,3.152,3.152,0,0,1,3.79,2.588A3.313,3.313,0,0,1-5373.057-1680.83Zm-1.868-.022a1.326,1.326,0,0,0-1.3-1.311,1.32,1.32,0,0,0-1.292,1.286,1.308,1.308,0,0,0,1.269,1.3A1.305,1.305,0,0,0-5374.925-1680.852Z" transform="translate(5411.335 1690.159)" fill="#4a9ccb"></path><path id="Path_923" data-name="Path 923" d="M-5488.129-1582.02a.167.167,0,0,0-.066-.147c-.117-.117-.229-.239-.351-.349-.1-.093-.083-.16,0-.255.319-.348.315-.351.645-.023a1.794,1.794,0,0,1,.13.132.186.186,0,0,0,.291.033,1.942,1.942,0,0,1,.8-.323c.146-.022.183-.1.176-.235s-.005-.289,0-.433c.007-.187.011-.187.292-.19.354,0,.358,0,.367.178.007.155.006.31,0,.464a.179.179,0,0,0,.165.215,2.127,2.127,0,0,1,.824.339c.092.062.166.069.242-.018.048-.054.1-.1.154-.153.339-.338.384-.332.687.059.057.073.057.123-.006.185-.118.115-.231.236-.351.349-.085.081-.117.15-.039.264a2.056,2.056,0,0,1,.338.823.18.18,0,0,0,.215.167c.155-.005.31,0,.465,0,.109,0,.163.04.174.162.043.485.038.5-.455.5h-.093c-.256,0-.256,0-.32.258a2.1,2.1,0,0,1-.307.706.2.2,0,0,0,.042.314c.1.088.185.2.287.281.132.11.1.192-.008.3-.378.361-.271.337-.606.017l-.022-.022c-.245-.245-.244-.243-.548-.077a2.452,2.452,0,0,1-.6.232c-.231.055-.23.061-.233.31,0,.134,0,.268,0,.4,0,.065-.013.136-.089.139a4.469,4.469,0,0,1-.494-.005c-.081-.006-.075-.086-.076-.146,0-.155-.005-.31,0-.464,0-.115-.018-.188-.156-.214a2.191,2.191,0,0,1-.852-.354.155.155,0,0,0-.237.031c-.112.12-.236.231-.349.351-.083.089-.144.074-.231,0-.37-.322-.373-.319-.022-.669l.043-.044c.2-.2.2-.2.053-.453a2.273,2.273,0,0,1-.274-.719c-.024-.12-.075-.179-.205-.17s-.269,0-.4,0c-.229,0-.234-.006-.234-.246,0-.474-.05-.405.412-.412h.093c.359,0,.285.006.365-.284a2.534,2.534,0,0,1,.3-.677Z" transform="translate(5507.299 1595.396)" fill="#4a9ccb"></path><path id="Path_924" data-name="Path 924" d="M-5436.775-1501.989c.407.357.964.513,1.1,1.153a1.107,1.107,0,0,0-.27-1.187c-.133-.114-.269-.226-.391-.351a1.433,1.433,0,0,1-.376-.632c-.019-.07-.092-.168.042-.2.1-.021.212-.044.256.1a1.765,1.765,0,0,0,.661.835,1.414,1.414,0,0,1,.462,1.314,2.883,2.883,0,0,1-.231.927.934.934,0,0,0-.067.567,3.027,3.027,0,0,1-.112,1.194,6.245,6.245,0,0,1-2.476,3.872,2.851,2.851,0,0,1-1.752.609,1.615,1.615,0,0,1-1.551-1.115,1.544,1.544,0,0,1,.295-1.427,2.442,2.442,0,0,1,.9-.741,14.673,14.673,0,0,0,3.3-2.282c.156-.136.316-.266.482-.389.107-.079.229-.138.342-.211.078-.05.211.005.246-.1a.782.782,0,0,0,.016-.306,1.135,1.135,0,0,0-.6-1.043,1.36,1.36,0,0,1-.23-.156C-5436.928-1501.706-5436.927-1501.707-5436.775-1501.989Z" transform="translate(5462.077 1519.183)" fill="#4a9ccb"></path><path id="Path_925" data-name="Path 925" d="M-5589.049-1550.794a1.336,1.336,0,0,1-.149.672c-.092.2-.195.387-.3.579a2.705,2.705,0,0,0-.334,1.242,3.7,3.7,0,0,1-.3,1.446,2.147,2.147,0,0,1-.546.78,1.09,1.09,0,0,1-.609.28,1.1,1.1,0,0,1-1.286-1.244,2.862,2.862,0,0,1,.3-1.1,3.931,3.931,0,0,1,.475-.76,2.882,2.882,0,0,0,.635-1.616c.011-.134.035-.266.05-.4a1.034,1.034,0,0,1,1.123-.958A.975.975,0,0,1-5589.049-1550.794Z" transform="translate(5604.887 1565.192)" fill="#4a9ccb"></path><path id="Path_926" data-name="Path 926" d="M-5551.058-1397.652a1.664,1.664,0,0,1-1.686-1.7,1.669,1.669,0,0,1,1.694-1.695,1.686,1.686,0,0,1,1.7,1.719A1.677,1.677,0,0,1-5551.058-1397.652Z" transform="translate(5567.228 1422.561)" fill="#4a9ccb"></path></svg>