<svg xmlns="http://www.w3.org/2000/svg" fill="#ff6633" width="143.562" height="90.624" viewBox="0 0 143.562 90.624"><g id="Group_387" data-name="Group 387" transform="translate(1192 -640.813)"><path id="Path_1089" data-name="Path 1089" d="M-829.937,861.025c-.8,2.477-2.6,3.277-5.086,3.22-3.926-.09-7.855-.034-11.783-.02-2.027.008-4-.08-4.921-2.341-.891-2.187-.273-4.349,1.842-6.278a4.054,4.054,0,0,1-2.173-4.288c.134-2.284,1.38-3.737,3.679-3.79,4.876-.111,9.757-.06,14.636-.021,2.089.017,3.17,1.367,3.807,3.182v2.138l-1.889,2.807,1.889,3.252Zm-11.044-.71c1.717,0,3.443.094,5.146-.058.5-.045.935-.79,1.4-1.214-.437-.46-.861-1.306-1.312-1.32-3.488-.115-6.984-.125-10.472-.006-.477.016-.923.925-1.383,1.42.49.394.956,1.085,1.476,1.129C-844.423,860.41-842.7,860.319-840.981,860.315Zm-.083-6.348c1.723,0,3.454.089,5.166-.055.511-.043.968-.739,1.448-1.136-.485-.459-.957-1.3-1.459-1.317q-5.075-.178-10.158-.007c-.529.018-1.031.811-1.546,1.246.519.423,1.007,1.157,1.562,1.212C-844.4,854.073-842.728,853.968-841.063,853.967Z" transform="translate(-218.501 -132.85)"></path><path id="Path_1090" data-name="Path 1090" d="M-1192,847.516h4.121v6.306h12.976v-6.229h4.134v16.572h-4.036v-6.2h-12.93v6.3H-1192Z" transform="translate(0 -132.885)"></path><path id="Path_1091" data-name="Path 1091" d="M-1062.558,708.977l12.79-12.773-.792-1.284,5.261-4.876-14.4-13.044.324-.485a73.536,73.536,0,0,1,16.406,10.767l1.588-1.2,4.405,4.528-1.1,1.438a62,62,0,0,1,10.852,16.383l-.484.372-12.956-14.06-4.662,5.266-.567-.389-1.369-.875-21.125,21.135-2.319-2.4,6.28-5.617c-6.393-7.62-8.752-15.991-6.994-25.343a28.08,28.08,0,0,1,10.02-16.767c10.478-8.709,25.12-8.19,33.684-2.209-1.579,2.379-1.579,2.379-4.075,1.164-15.408-7.5-34.263,2.492-36.746,19.475C-1069.669,695.972-1067.368,703.971-1062.558,708.977Z" transform="translate(-77.161 -14.342)"></path><path id="Path_1092" data-name="Path 1092" d="M-1034.281,847.7v3.876c-4.462,0-8.847-.066-13.227.052a6.957,6.957,0,0,0-2.8,1.139c-.244.131-.245.712-.414,1.271h16.389a35.782,35.782,0,0,1-.05,5.4c-.447,2.831-2.444,4.652-5.622,4.792-4.856.214-9.729.056-14.708.056V860.5c.594-.033,1.217-.095,1.84-.1,3.748-.01,7.5.005,11.245-.01,1.566-.006,2.988-.285,3.416-2.36h-16.482a13.672,13.672,0,0,1,.7-7.11,5.293,5.293,0,0,1,4.836-3.173C-1044.245,847.588-1039.32,847.7-1034.281,847.7Z" transform="translate(-88.175 -132.979)"></path><path id="Path_1093" data-name="Path 1093" d="M-898.36,847.8c.735,6.211-.356,8.2-5.726,10.311l5.878,6.148c-2.88.45-5.39.547-7.1-2.069a2.828,2.828,0,0,0-.249-.255c-2.3-2.682-4.705-5.148-8.91-3.657v-4.151c3.037,0,6.108-.013,9.179.006,1.546.01,2.616-.514,2.888-2.341h-13.913v12.5h-4.214V847.8Z" transform="translate(-174.526 -133.066)"></path><path id="Path_1094" data-name="Path 1094" d="M-1029.687,739.885c1.1-1.855,2.268-2.147,4.3-1.305a25.9,25.9,0,0,0,35.367-19.862,26.19,26.19,0,0,0-4.013-18.6l1.848-2.161c6.129,6.5,8.719,22.465-.256,34.2C-1002.453,745.246-1019.767,746.077-1029.687,739.885Z" transform="translate(-104.348 -36.74)"></path><path id="Path_1095" data-name="Path 1095" d="M-1102.255,847.474v16.6h-4V857.92h-13.606v6.155h-4.026c0-3.461-.26-6.909.07-10.3.364-3.733,3.222-6.155,7.073-6.267C-1111.992,847.369-1107.231,847.474-1102.255,847.474Zm-17.346,5.693.323.65h12.985c-.042-.868-.078-1.591-.1-2.114-3.673,0-7.1-.1-10.52.067C-1117.832,851.815-1118.707,852.679-1119.6,853.167Z" transform="translate(-43.725 -132.834)"></path><path id="Path_1096" data-name="Path 1096" d="M-971.506,853.941v-6.23h4.179v16.581h-4.16v-6.2h-12.888v6.2H-988.5V847.752h4.01v6.188Z" transform="translate(-130.825 -133.011)"></path><path id="Path_1097" data-name="Path 1097" d="M-971.352,658.715l-4.812,5.568c-1.277-1.091-2.438-2.085-3.6-3.075a7.366,7.366,0,0,0-1.1-.9c-1.193-.666-6.821.361-7.743,1.4-1.1,1.237-2.17,2.5-3.382,3.9l-5.8-4.931,4.991-5.786c1.259,1.086,2.454,2.038,3.554,3.09a3.216,3.216,0,0,0,3.532.984,2.51,2.51,0,0,1,1.056-.12c3.14.331,4.852-1.7,6.442-3.891a2.681,2.681,0,0,0,.36-1.328,12.1,12.1,0,0,0-.062-1.775c-.175-2.383.265-5.028-3.081-6.086l3.207-3.734,3.606,3.085c-2.967,1.96-2.348,4.769-2.194,7.475C-976.2,655.8-972.74,656.229-971.352,658.715Z" transform="translate(-124.853 -0.784)"></path><path id="Path_1098" data-name="Path 1098" d="M-911.358,661.664l-3.107,3.6-3.635-3.087,3.121-3.606Z" transform="translate(-176.085 -11.414)"></path><path id="Path_1099" data-name="Path 1099" d="M-924.812,645.358l-2.478-2.1,2.124-2.441,2.4,2.081Z" transform="translate(-170.177)"></path><path id="Path_1100" data-name="Path 1100" d="M-907.246,642.133l1.8,1.514-1.475,1.7-1.792-1.369Z" transform="translate(-182.118 -0.849)"></path></g></svg>