<?xml version="1.0" encoding="utf-8"?>
<!-- Generator: Adobe Illustrator 25.2.3, SVG Export Plug-In . SVG Version: 6.00 Build 0)  -->
<svg version="1.1" id="Layer_1" xmlns="http://www.w3.org/2000/svg" xmlns:xlink="http://www.w3.org/1999/xlink" x="0px" y="0px"
	 viewBox="0 0 512.1 88.8" style="enable-background:new 0 0 512.1 88.8;" xml:space="preserve">
<style type="text/css">
	.st0{fill:#FFFFFF;}
</style>
<g>
	<g>
		<g>
			<g>
				<path class="st0" d="M110.1,73.4c-18.4,0-29.9-13-29.9-30.5c0-17.3,11.6-30.5,30-30.5c14.8,0,23.5,7.7,27.1,19.1h-9.9
					c-3.1-7.1-8.2-10.7-17.2-10.7c-12.5,0-20,9.8-20,22.1c0,12.3,7.5,22.1,20,22.1c9.6,0,14.8-4.3,17.2-10.7h9.9
					C134.5,65.3,124.8,73.4,110.1,73.4z"/>
				<path class="st0" d="M179.1,72.4h-9.7c-0.3-1.7-0.4-3.7-0.4-5.7v-1.2h-0.1c-1.5,3.9-5.4,8-13.5,8c-9.6,0-15-5.9-15-12.7
					c0-12.4,14.5-12.7,20.6-13.7c5.6-0.9,7.9-1.7,7.9-5.3c0-3.5-3.1-5.9-8.2-5.9c-4.6,0-7.9,2.6-8.2,6.8h-9.3
					c0.4-7,5.9-14.3,17.3-14.3c14.2,0,17.8,8.5,17.8,17.6v16.4C178.3,65.8,178.5,70.1,179.1,72.4z M169.2,48.3
					c-1,2.6-3.4,4.5-10.4,5.8c-5.9,1.1-8.9,2.7-8.9,6.5c0,3.4,3,5.9,7.9,5.9c5.9,0,11.4-4.2,11.4-13.7V48.3z"/>
				<path class="st0" d="M200.1,35.8c-3.7,0-6.9,2.2-6.9,5.3c0,4.1,4.9,5.3,12.1,6.9c7.5,1.6,12.9,5.2,12.9,12
					c0,8.5-8.2,13.4-17.6,13.4c-8.7,0-17-4-18-14.2h9.5c0.8,4.7,3.7,6.8,8.7,6.8c4,0,7.8-1.6,7.8-5.6c0-4.2-4.2-4.9-11-6.5
					c-6.8-1.6-13.7-4.8-13.7-12.5c0-7.7,7.6-12.9,16.3-12.9c9.2,0,16.2,4.7,17.1,13.9h-9.1C207.7,37.8,204,35.8,200.1,35.8z"/>
				<path class="st0" d="M266.1,50.9c0,13.3-8.1,22.7-19.4,22.7c-7.3,0-12.1-3.9-13.8-9h-0.1v24.2H223v-59h9.9v7.7
					c1.6-4.6,6.5-8.9,13.8-8.9C258,28.6,266.1,37.7,266.1,50.9z M256.5,50.9c0-8.1-4.6-14.5-12.1-14.5c-7.3,0-11.9,5.7-12.2,13.6
					v0.9c0,8.4,3.9,14.8,12.2,14.8C252,65.7,256.5,59.2,256.5,50.9z"/>
				<path class="st0" d="M311,53.6h-32.8c0.7,7.7,5.6,12.2,12.3,12.2c4.9,0,8.9-1.8,10.5-6.1h9.5c-2.6,8.7-9.9,13.8-19.9,13.8
					c-12.8,0-21.5-9.2-21.5-22.6c0-12.9,9.1-22.3,21.5-22.3c14.5,0,20.4,11.2,20.5,23.2V53.6z M301.5,46.7
					C300.8,40,296.9,36,290.3,36s-11,4.2-12,10.7H301.5z"/>
				<path class="st0" d="M325.6,52.2v20.2h-9.6V29.7h9.4v9.1h0.2c1.6-5.8,5.8-9.6,12.5-9.9v9.6C330.1,38.6,325.6,43.7,325.6,52.2z"
					/>
			</g>
		</g>
		<g>
			<g>
				<path class="st0" d="M383.5,64v8.4h-37.8v-59h10V64H383.5z"/>
				<path class="st0" d="M424.1,72.4h-9.8c-0.3-1.7-0.4-3.7-0.4-5.7v-1.2h-0.1c-1.5,3.9-5.4,8-13.6,8c-9.6,0-15-6-15-12.7
					c0-12.4,14.6-12.7,20.7-13.7c5.6-0.9,7.9-1.7,7.9-5.3c0-3.6-3.1-5.9-8.3-5.9c-4.6,0-7.9,2.6-8.2,6.9h-9.3
					c0.4-7,6-14.3,17.4-14.3c14.2,0,17.9,8.5,17.9,17.7v16.5C423.3,65.8,423.5,70.2,424.1,72.4z M414.1,48.3
					c-1,2.6-3.4,4.5-10.4,5.8c-5.9,1.1-8.9,2.7-8.9,6.5c0,3.4,3,5.9,7.9,5.9c5.9,0,11.4-4.2,11.4-13.7V48.3z"/>
				<path class="st0" d="M474,50.9c0,13.6-7.9,22.7-19.3,22.7c-7,0-12.2-4.2-14.1-9h-0.1v7.8h-9.8v-59h9.9v24.1
					c1.7-4.5,7.1-9,14.1-9C466.1,28.5,474,37.4,474,50.9z M464.3,50.9c0-8.7-4.9-14.6-12.2-14.6c-7.4,0-11.9,5.7-12.2,13.6v0.9
					c0,8.4,4.6,14.8,12.2,14.8C459.6,65.7,464.3,59.7,464.3,50.9z"/>
				<path class="st0" d="M493.9,35.8c-3.7,0-6.9,2.2-6.9,5.3c0,4.1,5,5.3,12.2,6.9c7.5,1.7,13,5.2,13,12.1c0,8.5-8.2,13.5-17.6,13.5
					c-8.8,0-17-4-18-14.2h9.5c0.8,4.7,3.7,6.9,8.7,6.9c4.1,0,7.9-1.7,7.9-5.6c0-4.2-4.2-4.9-11.1-6.5c-6.9-1.6-13.7-4.8-13.7-12.6
					c0-7.8,7.6-13,16.4-13c9.3,0,16.2,4.7,17.2,14h-9.1C501.5,37.8,497.8,35.8,493.9,35.8z"/>
			</g>
		</g>
	</g>
	<g>
		<path class="st0" d="M58.9,72.8L37.8,35.4V11.7h1.9c2,0,3.6-1.6,3.6-3.6s-1.6-3.6-3.6-3.6h-2.3l0.9-1.3C38.7,1.6,37.5,0,35.8,0
			H24.5c-1.7,0-2.9,1.6-2.5,3.3L23,4.6h-2.3c-2,0-3.6,1.6-3.6,3.6s1.6,3.6,3.6,3.6h1.9v23.7L1.4,72.8c-1.9,3.3-1.8,7.2,0.1,10.5
			c1.9,3.3,5.3,5.2,9.1,5.2h39.3c3.8,0,7.2-1.9,9.1-5.2C60.8,80,60.8,76.1,58.9,72.8z M57.7,82.6c-1.7,2.8-4.6,4.5-7.9,4.5H10.5
			c-3.3,0-6.3-1.7-7.9-4.5c-1.7-2.8-1.7-6.3-0.1-9.1l21.4-37.8V10.4h-3.3c-1.2,0-2.2-1-2.2-2.2s1-2.2,2.2-2.2h19
			c1.2,0,2.2,1,2.2,2.2s-1,2.2-2.2,2.2h-3.3v25.3l21.4,37.8C59.4,76.3,59.4,79.8,57.7,82.6z"/>
		<path class="st0" d="M46.5,64.1C41.2,66.4,35,67.2,29,63.6c-4.9-2.9-9.3-3.7-13-3.4L7,76c-1,1.8-0.3,3.4,0,4c0.3,0.6,1.4,2,3.4,2
			h39.3c2.1,0,3.1-1.4,3.4-2c0.4-0.6,1-2.2,0-4L46.5,64.1z"/>
		<path class="st0" d="M26.3,51.9c0.1,0,0.2,0,0.3,0l3.6,3.9c-0.1,0.3-0.2,0.6-0.2,1c0,1.3,1.1,2.4,2.4,2.4c1.3,0,2.4-1.1,2.4-2.4
			c0-1.3-1.1-2.4-2.4-2.4c-0.5,0-1,0.2-1.4,0.4l-3.5-3.8c0-0.1,0.1-0.2,0.1-0.3l3.3-1.5c0.6,0.9,1.7,1.4,2.8,1.4
			c1.9,0,3.5-1.6,3.5-3.5s-1.6-3.5-3.5-3.5c-1.9,0-3.5,1.6-3.5,3.5c0,0.3,0,0.6,0.1,0.8l-3.3,1.5c-0.2-0.2-0.5-0.3-0.8-0.3
			c-0.8,0-1.4,0.6-1.4,1.4C25,51.3,25.6,51.9,26.3,51.9z"/>
	</g>
</g>
</svg>
