<svg width="341" height="82" viewBox="0 0 341 82" fill="none" xmlns="http://www.w3.org/2000/svg">
<g clip-path="url(#clip0)">
<path d="M92.062 41.8331C92.062 28.5491 99.136 21.9611 113.014 21.9611C118.684 21.9611 122.032 22.9871 124.895 24.2831L122.465 30.9251C118.846 29.9531 117.335 29.5751 113.122 29.5201C106.21 29.4131 101.405 33.3001 101.405 41.2921C101.405 49.2851 106.481 53.5511 114.203 53.5511C117.928 53.5511 120.143 53.2271 123.057 52.4711L125.002 59.3831C121.33 60.7331 118.145 61.2191 113.231 61.2191C99.245 61.2191 92.062 54.3611 92.062 41.8331V41.8331ZM150.71 45.9371C150.71 41.1851 149.523 37.5671 144.552 37.5671C139.693 37.5671 138.344 41.1851 138.344 45.9921C138.344 51.0671 139.856 54.1451 144.661 54.1451C149.523 54.1451 150.709 50.9591 150.709 45.9371H150.71ZM129.27 46.2071C129.27 36.4321 135.373 30.4381 144.715 30.4381C155.191 30.4381 159.891 36.3251 159.891 45.9381C159.891 55.9811 153.3 61.3281 144.228 61.3281C134.509 61.3281 129.27 55.4411 129.27 46.2061V46.2071ZM162.81 31.1951H172.476L177.444 47.1791L178.956 53.0651L180.631 47.1791L186.137 31.1951H195.589L184.14 60.6791H173.447L162.81 31.1951ZM216.27 53.1731V48.5301L211.845 48.6391C209.197 48.6921 207.255 49.5561 207.255 51.7161C207.255 53.4441 208.928 54.2001 210.548 54.2001C212.276 54.2001 214.328 53.7131 216.271 53.1741L216.27 53.1731ZM198.505 52.2551C198.505 44.8031 205.311 43.2911 211.143 43.2911H216.271V41.4541C216.271 38.8631 214.597 38.1071 210.927 38.1071C208.009 38.1071 204.877 38.7551 202.123 39.4021L200.343 32.8681C203.691 31.5731 207.579 30.4931 212.276 30.4931C221.403 30.4931 225.075 33.0851 225.075 39.7271V52.8491C225.075 53.8211 226.047 54.0371 227.72 54.0911L227.396 60.8951C226.695 60.9491 225.991 60.9491 225.289 60.9491C221.727 60.9491 217.947 60.3551 217.137 57.8171C214.977 59.4921 211.899 61.1651 208.657 61.1651C202.179 61.1651 198.505 58.1411 198.505 52.2551V52.2551ZM234.419 19.9621H243.437V60.6801H234.419V19.9621ZM268.441 42.9131C268.549 39.3491 266.983 36.8651 264.067 36.8651C260.989 36.8651 258.992 39.0251 258.829 42.9131H268.441ZM249.593 46.3681C249.593 34.3271 255.913 30.4931 264.823 30.4931C274.111 30.4931 277.676 36.5411 277.676 45.4511V48.6911H258.56C258.507 53.3351 262.177 54.1991 266.873 54.1991C268.873 54.1991 272.221 53.5511 275.3 53.0111L276.65 59.8681C273.356 60.8411 269.144 61.3281 265.58 61.3281C255.86 61.3281 249.593 58.1411 249.593 46.3681V46.3681ZM283.835 31.1951H292.853V34.1651C294.636 32.8151 298.524 30.4381 302.467 30.4381C311.7 30.4381 312.348 35.5141 312.348 42.2111V60.6801H303.383V42.9671C303.383 38.9171 302.467 38.2151 299.44 38.2151C296.741 38.2151 294.312 39.0791 292.853 39.7811V60.6791H283.835V31.1951V31.1951ZM321.205 51.4991V37.8371H316.887V31.1951H321.205V25.1461H330.169V31.1951H339.297V37.8371H330.169V51.4451C330.169 53.6051 330.98 53.7671 333.411 53.7671C335.408 53.7671 339.783 53.1731 339.783 53.1731L340.647 60.2471C338.54 60.8411 335.679 61.2731 333.519 61.2731C327.848 61.2731 321.205 61.5431 321.205 51.4991V51.4991ZM40.648 18.9561V-0.00390625C18.188 -0.00390625 0 18.1851 0 40.6441C0 63.1041 18.189 81.2941 40.648 81.2941V62.3341C28.66 62.3341 18.96 52.6331 18.96 40.6441C18.96 28.6571 28.66 18.9561 40.648 18.9561" fill="white"/>
<path d="M62.416 18.9561C61.1711 18.9561 59.9384 18.7109 58.7882 18.2345C57.638 17.7581 56.593 17.0598 55.7127 16.1795C54.8324 15.2992 54.1341 14.2541 53.6577 13.1039C53.1812 11.9538 52.936 10.721 52.936 9.47609C52.936 8.23116 53.1812 6.99842 53.6577 5.84826C54.1341 4.69809 54.8324 3.65302 55.7127 2.77272C56.593 1.89242 57.638 1.19413 58.7882 0.717716C59.9384 0.241301 61.1711 -0.00390627 62.416 -0.00390625C64.9303 -0.00390621 67.3416 0.994877 69.1194 2.77272C70.8972 4.55057 71.896 6.96184 71.896 9.47609C71.896 11.9903 70.8972 14.4016 69.1194 16.1795C67.3416 17.9573 64.9303 18.9561 62.416 18.9561" fill="#00D8D5"/>
<path d="M62.2571 81.293C59.7428 81.293 57.3316 80.2942 55.5537 78.5164C53.7759 76.7385 52.7771 74.3273 52.7771 71.813C52.7771 69.2988 53.7759 66.8875 55.5537 65.1096C57.3316 63.3318 59.7428 62.333 62.2571 62.333C64.7714 62.333 67.1826 63.3318 68.9605 65.1096C70.7383 66.8875 71.7371 69.2988 71.7371 71.813C71.7371 74.3273 70.7383 76.7385 68.9605 78.5164C67.1826 80.2942 64.7714 81.293 62.2571 81.293" fill="#FF4C8B"/>
<path d="M62.337 40.6441C62.337 52.6331 52.6369 62.3341 40.6479 62.3341V18.9551C52.6359 18.9551 62.337 28.6551 62.337 40.6431" fill="white"/>
</g>
<defs>
<clipPath id="clip0">
<rect width="340.64" height="81.293" fill="white"/>
</clipPath>
</defs>
</svg>
