<?xml version="1.0" encoding="UTF-8"?>
<svg class="logo-light" height="40" viewBox="0 0 166 41" xmlns="http://www.w3.org/2000/svg">
<path d="m94.59 15.23c2 0 3.28 1.06 3.28 2.59 0 1.06-0.63 2.16-2.13 2.45 1.61 0.29 2.4 1.48 2.4 2.68 0 1.68-1.49 2.94-3.48 2.94h-4.81v-10.66h4.74zm-3.13 4.45h2.78c1.33 0 1.99-0.77 1.99-1.62 0-0.87-0.7-1.44-1.83-1.44h-2.94v3.06zm0 4.82h3.02c1.17 0 2.02-0.77 2.02-1.75 0-0.78-0.55-1.78-2.23-1.78h-2.81v3.53zm-7.71-9.27v10.66h-1.61v-9.15l-3.87 9.15h-1.11l-3.87-9.18v9.18h-1.61v-10.66h2.56l3.48 8.22 3.46-8.22h2.57zm-18.08 0v6.55c0 2.6-1.67 4.26-4.27 4.26s-4.28-1.66-4.28-4.26v-6.55h1.64v6.53c0 1.7 1 2.8 2.64 2.8s2.63-1.1 2.63-2.8v-6.53h1.64z" clip-rule="evenodd" fill="#2B28B7" fill-rule="evenodd"/>
<path d="M112.4 25.9h-2.1l-2.87-4.3h-2.08v4.3h-1.64V15.22h4.7c2.14 0 3.64 1.37 3.64 3.15 0 1.61-1.17 2.88-2.92 3.16l3.27 4.35zm-4.06-5.68c1.25 0 2.1-.8 2.1-1.82 0-1-.85-1.76-2.1-1.76h-2.98v3.58h2.98z" clip-rule="evenodd" fill-rule="evenodd"/>
<path d="m125.05 16.66h-7.4v-1.43h7.4v1.43zm-5.79 7.8v-3.44h5.6v-1.39h-7.2v6.26h7.39v-1.43h-5.79zm13.2-0.03v-9.2h-1.64v10.66h7.1v-1.46h-5.46zm12.34 0v-9.2h-1.64v10.66h7.1v-1.46h-5.46zm16.8-9.2h-2.24l-4.2 10.66h1.77l3.55-9.29 3.56 9.3h1.77l-4.2-10.67z"/>
<path d="M25.64.2c1.17 0 2.15.83 2.37 1.93 4.75.46 9.19 2.29 12.89 5.3a2.41 2.41 0 014.03 1.78c0 .62-.24 1.18-.62 1.6a23.65 23.65 0 015.32 12.82A2.4 2.4 0 0151.58 26c0 1.32-1.09 2.4-2.42 2.4a2.4 2.4 0 01-2.36-2.9l-6.64-3.2a2.4 2.4 0 01-3.6.1l-8.53 3.3a2.4 2.4 0 01-1.8 2.63v7.34a2.46 2.46 0 011.88 2.39 2.47 2.47 0 01-4.94 0c0-1.16.8-2.12 1.88-2.39v-7.34a2.39 2.39 0 01-1.8-2.63l-8.32-3.23a2.4 2.4 0 01-3.85.11l-6.59 2.98a2.4 2.4 0 01-2.37 2.84 2.4 2.4 0 01-2.42-2.4 2.4 2.4 0 011.95-2.36c.46-4.73 2.3-9.13 5.32-12.81a2.37 2.37 0 01-.62-1.6 2.41 2.41 0 014.03-1.79 23.94 23.94 0 0112.9-5.3A2.42 2.42 0 0125.63.2zM24.4 2.6a1.24 1.24 0 002.49 0 1.24 1.24 0 00-2.5 0zm8.8 9.82l6.94-2.75c-.1-.61.01-1.01.1-1.27a22.79 22.79 0 00-12.29-5.1c-.03.1-.16.5-.5.88l5.76 8.24zm-14.98-.04l5.61-8.18c-.2-.22-.37-.52-.5-.9a22.8 22.8 0 00-12.3 5.1c.1.26.18.71.13 1.14l7.06 2.84zm8 1.23c.62.13 1.15.49 1.5.98l4.37-1.73-5.6-8.01-.26.08v8.68zm-2.5.97c.31-.44.79-.78 1.33-.93V4.93a2.81 2.81 0 01-.24-.08l-5.48 7.98 4.38 1.75zm18.8-4.13c.68 0 1.24-.56 1.24-1.24a1.24 1.24 0 00-2.49 0c0 .68.56 1.24 1.24 1.24zm-33.75 0c.68 0 1.24-.56 1.24-1.24a1.24 1.24 0 00-2.48 0c0 .68.55 1.24 1.24 1.24zm0 1.16c-.26 0-.53-.04-.82-.14A22.5 22.5 0 002.82 23.7c.19.06.74.25 1.19.8l6.58-2.98a2.41 2.41 0 013.2-2.69l3.75-5.45-6.82-2.74c-.34.48-1.06.98-1.94.98zm28.7 6.9a2.4 2.4 0 013.22 2.73l6.62 3.2c.42-.5.96-.7 1.15-.75a22.5 22.5 0 00-5.13-12.22c-.26.1-1.61.51-2.69-.74L33.9 13.4l3.57 5.11zm-22.7.97l.15.2 8.35-3.32c-.05-.3-.01-.58 0-.7l-4.61-1.85-3.9 5.67zm21.43.12c.09-.16.19-.3.3-.42l-3.72-5.33-4.62 1.83c.02.1.05.42 0 .69l8.04 3.23zm-10.48-2.3c.72 0 1.3-.6 1.3-1.29a1.3 1.3 0 00-2.6 0c0 .73.6 1.3 1.3 1.3zm-2.05 7.3c.5-.7 1.15-.88 1.38-.94v-5.29a2.47 2.47 0 01-1.34-.93l-8.35 3.31c.04.3.01.53 0 .63l8.31 3.22zm2.56-.94c.23.06.86.23 1.38.94l8.37-3.24c-.09-.29-.08-.63-.08-.63l-8.19-3.28c-.35.48-.88.83-1.48.96v5.25zM38.32 22a1.24 1.24 0 10-1.24-1.24c0 .68.55 1.24 1.24 1.24zm-25.36.32c.7 0 1.25-.55 1.25-1.23a1.24 1.24 0 00-2.49 0c0 .68.56 1.23 1.24 1.23zm36.2 4.91c.69 0 1.25-.55 1.25-1.23a1.24 1.24 0 00-2.5 0c0 .68.57 1.23 1.25 1.23zm-23.52 0c.69 0 1.24-.55 1.24-1.23a1.24 1.24 0 00-2.48 0c0 .68.56 1.23 1.24 1.23zm-23.52 0c.68 0 1.24-.55 1.24-1.23a1.24 1.24 0 00-2.49 0c0 .68.56 1.23 1.25 1.23zm23.52 12.11c.72 0 1.3-.57 1.3-1.28a1.3 1.3 0 00-1.3-1.3 1.3 1.3 0 100 2.58z" clip-rule="evenodd" fill="#2B28B7" fill-rule="evenodd"/>
</svg>
