<svg xmlns="http://www.w3.org/2000/svg" xmlns:xlink="http://www.w3.org/1999/xlink" version="1.1" id="forbes-2" x="0px" y="0px" viewBox="0 0 104.1 26.1" style="enable-background:new 0 0 104.1 26.1;" xml:space="preserve"> <style type="text/css"> .st0{fill:#FFFFFF;} </style> <g id="Page-1"> <g id="CT-logo-BlackYellow-tag"> <g id="Atoms_x2F_Icons_x2F_logos_x2F_CT-GY-icon"> <g id="Group"> <path id="Shape" class="st0" d="M16,18.9l-4.2,1.8v-0.2c-0.8,0.2-1.7,0.3-2.6,0.4c-4,0-7.1-2.1-7.1-4.6v-0.9 c1.3,1.9,3.9,3.2,7.1,3.1c1.1,0.1,2.2-0.1,3.1-0.4l0.4-0.9c-1.1,0.3-2.3,0.6-3.5,0.6c-4,0-7.1-2.1-7.1-4.6v-0.7 c1.3,1.7,3.9,3,7.1,2.9c1.4,0.1,2.8-0.2,4-0.7l0.2-0.9c-1.2,0.6-2.7,1-4.2,0.9c-4,0.1-7.1-2-7.1-4.6V9.4 c1.3,1.8,3.9,3.1,7.1,3.1c1.8-0.1,3.5-0.5,4.9-1.3l0.2-1.1c-1.3,0.9-3.1,1.6-5.1,1.6c-4-0.1-7.1-2.2-7.1-4.8 c0-2.5,3.2-4.5,7.1-4.6c2.4,0,4.6,0.9,5.8,2.2l0.1,0.2h0.9l-0.1-0.2c-1.3-1.8-3.9-2.9-6.8-2.9C4.9,1.7,1.4,4.1,1.4,7v0.2v9.3 c0.2,2.8,3.6,5.1,7.9,5.1C12.1,21.6,14.7,20.5,16,18.9z"></path> <path id="Shape_1_" class="st0" d="M14.3,25.3l1.5-6.3l-4.3,1.8L14.1,10h-5l1.3-5.4h15.9L25,10h-5.2l-1.1,3l5.7-2.4L14.3,25.3z M16.9,17.8l-0.7,3.7l6.1-9.2l-5,2.2l2.2-5.2h5l0.9-3.9H11l-0.9,3.9h5l-2.4,10.3L16.9,17.8z"></path> </g> </g> <path id="Shape_2_" class="st0" d="M36.9,8.2L36.9,8.2c0,0.6-0.2,1.1-0.5,1.4s-0.9,0.5-1.5,0.5c-0.7,0-1.2-0.2-1.6-0.6 c-0.4-0.4-0.6-1-0.6-1.6V6.8c0-0.7,0.2-1.2,0.6-1.6c0.4-0.4,0.9-0.6,1.6-0.6c0.7,0,1.2,0.2,1.6,0.5c0.4,0.3,0.6,0.8,0.6,1.4v0 h-1.1c0-0.4-0.1-0.6-0.3-0.8s-0.4-0.3-0.8-0.3c-0.3,0-0.6,0.1-0.8,0.4s-0.3,0.6-0.3,1v1.1c0,0.4,0.1,0.8,0.3,1 c0.2,0.3,0.5,0.4,0.8,0.4c0.3,0,0.6-0.1,0.7-0.3c0.2-0.2,0.3-0.4,0.3-0.8L36.9,8.2L36.9,8.2z M42.9,7.8c0,0.7-0.2,1.2-0.6,1.7 s-1,0.7-1.7,0.7S39.4,9.9,39,9.5c-0.4-0.4-0.6-1-0.6-1.7v-1c0-0.7,0.2-1.2,0.6-1.7c0.4-0.4,1-0.7,1.6-0.7c0.7,0,1.2,0.2,1.7,0.7 c0.4,0.4,0.6,1,0.6,1.7L42.9,7.8L42.9,7.8z M41.8,6.8c0-0.4-0.1-0.8-0.3-1.1c-0.2-0.3-0.5-0.4-0.9-0.4c-0.4,0-0.7,0.1-0.9,0.4 c-0.2,0.3-0.3,0.6-0.3,1.1v1c0,0.4,0.1,0.8,0.3,1.1c0.2,0.3,0.5,0.4,0.9,0.4c0.4,0,0.7-0.1,0.9-0.4c0.2-0.3,0.3-0.6,0.3-1.1V6.8z M45.8,10.1h-1.1V4.5h1.1V10.1z M52.2,10.1h-1.1l-2.2-3.7h0v3.7h-1.1V4.5h1.1L51,8.3h0V4.5h1.1V10.1z M57.7,5.4h-1.6v4.7H55V5.4 h-1.5V4.5h4.2V5.4z M62.3,7.6h-2v1.6h2.4v0.8h-3.5V4.5h3.5v0.9h-2.4v1.4h2L62.3,7.6L62.3,7.6z M65.4,9.2h2.5v0.8h-3.6V4.5h1.1 L65.4,9.2L65.4,9.2z M72.5,7.6h-2v1.6h2.4v0.8h-3.5V4.5h3.5v0.9h-2.4v1.4h2L72.5,7.6L72.5,7.6z M78.7,9.3 c-0.2,0.2-0.4,0.4-0.8,0.6c-0.3,0.2-0.8,0.3-1.3,0.3c-0.7,0-1.2-0.2-1.6-0.6c-0.4-0.4-0.6-1-0.6-1.6V6.7c0-0.7,0.2-1.2,0.6-1.6 c0.4-0.4,0.9-0.6,1.6-0.6c0.7,0,1.2,0.2,1.5,0.5c0.4,0.3,0.5,0.7,0.5,1.3v0h-1c0-0.3-0.1-0.5-0.3-0.7c-0.2-0.2-0.4-0.3-0.7-0.3 c-0.3,0-0.6,0.1-0.8,0.4c-0.2,0.3-0.3,0.6-0.3,1v1.2c0,0.4,0.1,0.8,0.3,1s0.5,0.4,0.9,0.4c0.3,0,0.5,0,0.6-0.1 c0.2-0.1,0.3-0.1,0.4-0.2V7.9h-1.1V7.1h2.2L78.7,9.3L78.7,9.3z M81.6,7.9v2.2h-1.1V4.5h1.9c0.6,0,1.1,0.2,1.5,0.4 c0.4,0.3,0.5,0.7,0.5,1.2c0,0.3-0.1,0.5-0.2,0.7c-0.2,0.2-0.4,0.4-0.7,0.5c0.3,0.1,0.6,0.3,0.7,0.5c0.1,0.2,0.2,0.5,0.2,0.8v0.4 c0,0.2,0,0.3,0.1,0.5c0,0.2,0.1,0.3,0.2,0.4v0.1h-1.1c-0.1-0.1-0.2-0.2-0.2-0.4c0-0.2-0.1-0.4-0.1-0.5V8.8c0-0.3-0.1-0.5-0.2-0.6 C83,8,82.8,7.9,82.5,7.9L81.6,7.9L81.6,7.9z M81.6,7h0.8c0.3,0,0.5-0.1,0.7-0.2c0.2-0.1,0.2-0.3,0.2-0.6c0-0.3-0.1-0.5-0.2-0.6 c-0.2-0.2-0.4-0.2-0.7-0.2h-0.8L81.6,7L81.6,7z M89.1,8.9h-1.8L87,10.1h-1.2l1.9-5.5h1.1l1.8,5.5h-1.2L89.1,8.9z M87.6,8h1.2 l-0.6-1.9h0L87.6,8z M93.1,8.1v2H92V4.5h2.1c0.6,0,1.1,0.2,1.5,0.5s0.5,0.8,0.5,1.3s-0.2,1-0.5,1.3c-0.4,0.3-0.9,0.5-1.5,0.5 L93.1,8.1L93.1,8.1z M93.1,7.2h1c0.3,0,0.5-0.1,0.7-0.3C95,6.8,95,6.6,95,6.3c0-0.3-0.1-0.5-0.2-0.7c-0.2-0.2-0.4-0.3-0.7-0.3h-1 V7.2z M102.2,10.1h-1.1V7.8h-2.3v2.3h-1.1V4.5h1.1v2.4h2.3V4.5h1.1V10.1z"></path> <g id="Tag_x2F_The-future-of-money-_x2014_-dark-grey" transform="translate(169.000000, 69.000000)"> <path id="The-future-of-money" class="st0" d="M-134.4-49.9h-0.7v-3.6h-1.2v-0.6h3.2v0.6h-1.2C-134.4-53.6-134.4-49.9-134.4-49.9 z M-129.8-49.9h-0.7v-2c0-0.3-0.1-0.4-0.2-0.6c-0.1-0.1-0.3-0.2-0.5-0.2c-0.3,0-0.5,0.1-0.6,0.3c-0.1,0.2-0.2,0.5-0.2,0.9v1.6 h-0.7v-4.5h0.7v1.1c0,0.2,0,0.4,0,0.6h0.1c0.1-0.2,0.2-0.3,0.4-0.4c0.2-0.1,0.4-0.1,0.6-0.1c0.8,0,1.2,0.4,1.2,1.2V-49.9z M-127.4-49.9c-0.5,0-0.9-0.2-1.2-0.4c-0.3-0.3-0.4-0.7-0.4-1.2c0-0.5,0.1-0.9,0.4-1.2c0.3-0.3,0.6-0.5,1.1-0.5 c0.4,0,0.8,0.1,1,0.4c0.3,0.3,0.4,0.6,0.4,1.1v0.4h-2.1c0,0.3,0.1,0.6,0.3,0.7c0.2,0.2,0.4,0.3,0.7,0.3c0.2,0,0.4,0,0.5-0.1 c0.2,0,0.3-0.1,0.5-0.2v0.6c-0.2,0.1-0.3,0.1-0.5,0.2C-127-49.9-127.2-49.9-127.4-49.9z M-127.6-52.7c-0.2,0-0.4,0.1-0.5,0.2 c-0.1,0.1-0.2,0.3-0.2,0.6h1.4c0-0.3-0.1-0.5-0.2-0.6C-127.2-52.6-127.3-52.7-127.6-52.7z M-122.3-52.6h-0.8v2.7h-0.7v-2.7h-0.5 v-0.3l0.5-0.2v-0.2c0-0.4,0.1-0.7,0.3-0.8s0.5-0.3,0.8-0.3c0.2,0,0.5,0,0.7,0.1l-0.2,0.5c-0.2-0.1-0.3-0.1-0.5-0.1 c-0.2,0-0.3,0.1-0.3,0.1c-0.1,0.1-0.1,0.2-0.1,0.4v0.2h0.8L-122.3-52.6L-122.3-52.6z M-119.5-49.9l-0.1-0.4h0 c-0.1,0.2-0.2,0.3-0.4,0.4s-0.4,0.1-0.6,0.1c-0.4,0-0.7-0.1-0.9-0.3c-0.2-0.2-0.3-0.5-0.3-0.9v-2.1h0.7v2c0,0.3,0.1,0.4,0.2,0.6 c0.1,0.1,0.3,0.2,0.5,0.2c0.3,0,0.5-0.1,0.6-0.3s0.2-0.5,0.2-0.9v-1.6h0.7v3.2H-119.5z M-116.8-50.4c0.2,0,0.3,0,0.5-0.1v0.5 c-0.1,0-0.2,0.1-0.3,0.1c-0.1,0-0.2,0-0.4,0c-0.6,0-1-0.3-1-1v-1.7h-0.4v-0.3l0.5-0.3l0.2-0.7h0.4v0.7h0.9v0.5h-0.9v1.7 c0,0.2,0,0.3,0.1,0.4C-117.1-50.5-116.9-50.4-116.8-50.4z M-113.4-49.9l-0.1-0.4h0c-0.1,0.2-0.2,0.3-0.4,0.4s-0.4,0.1-0.6,0.1 c-0.4,0-0.7-0.1-0.9-0.3c-0.2-0.2-0.3-0.5-0.3-0.9v-2.1h0.7v2c0,0.3,0.1,0.4,0.2,0.6c0.1,0.1,0.3,0.2,0.5,0.2 c0.3,0,0.5-0.1,0.6-0.3s0.2-0.5,0.2-0.9v-1.6h0.7v3.2H-113.4z M-110.3-53.2c0.1,0,0.3,0,0.3,0l-0.1,0.6c-0.1,0-0.2,0-0.3,0 c-0.3,0-0.5,0.1-0.7,0.3c-0.2,0.2-0.3,0.4-0.3,0.7v1.7h-0.7v-3.2h0.5l0.1,0.6h0c0.1-0.2,0.3-0.3,0.4-0.5 C-110.7-53.1-110.5-53.2-110.3-53.2z M-108.1-49.9c-0.5,0-0.9-0.2-1.2-0.4c-0.3-0.3-0.4-0.7-0.4-1.2c0-0.5,0.1-0.9,0.4-1.2 c0.3-0.3,0.6-0.5,1.1-0.5c0.4,0,0.8,0.1,1,0.4c0.3,0.3,0.4,0.6,0.4,1.1v0.4h-2.1c0,0.3,0.1,0.6,0.3,0.7c0.2,0.2,0.4,0.3,0.7,0.3 c0.2,0,0.4,0,0.5-0.1c0.2,0,0.3-0.1,0.5-0.2v0.6c-0.2,0.1-0.3,0.1-0.5,0.2C-107.7-49.9-107.9-49.9-108.1-49.9z M-108.2-52.7 c-0.2,0-0.4,0.1-0.5,0.2c-0.1,0.1-0.2,0.3-0.2,0.6h1.4c0-0.3-0.1-0.5-0.2-0.6C-107.8-52.6-108-52.7-108.2-52.7z M-101.7-51.6 c0,0.5-0.1,0.9-0.4,1.2c-0.3,0.3-0.6,0.4-1.1,0.4c-0.3,0-0.6-0.1-0.8-0.2c-0.2-0.1-0.4-0.3-0.5-0.6c-0.1-0.3-0.2-0.5-0.2-0.9 c0-0.5,0.1-0.9,0.4-1.2c0.3-0.3,0.6-0.4,1.1-0.4c0.5,0,0.8,0.2,1.1,0.5C-101.8-52.4-101.7-52.1-101.7-51.6z M-104-51.6 c0,0.7,0.3,1.1,0.8,1.1c0.5,0,0.8-0.4,0.8-1.1c0-0.7-0.3-1.1-0.8-1.1c-0.3,0-0.5,0.1-0.6,0.3C-104-52.2-104-51.9-104-51.6z M-99.3-52.6h-0.8v2.7h-0.7v-2.7h-0.5v-0.3l0.5-0.2v-0.2c0-0.4,0.1-0.7,0.3-0.8s0.5-0.3,0.8-0.3c0.2,0,0.5,0,0.7,0.1l-0.2,0.5 c-0.2-0.1-0.3-0.1-0.5-0.1c-0.2,0-0.3,0.1-0.3,0.1s-0.1,0.2-0.1,0.4v0.2h0.8L-99.3-52.6L-99.3-52.6z M-94.6-49.9h-0.7v-2 c0-0.3-0.1-0.4-0.1-0.6c-0.1-0.1-0.2-0.2-0.4-0.2c-0.3,0-0.5,0.1-0.6,0.3c-0.1,0.2-0.2,0.5-0.2,0.9v1.6h-0.7v-3.2h0.5l0.1,0.4h0 c0.1-0.2,0.2-0.3,0.4-0.4s0.4-0.1,0.6-0.1c0.5,0,0.8,0.2,1,0.5h0.1c0.1-0.2,0.2-0.3,0.4-0.4s0.4-0.1,0.6-0.1 c0.4,0,0.7,0.1,0.8,0.3c0.2,0.2,0.3,0.5,0.3,0.9v2.1h-0.7v-2c0-0.3-0.1-0.4-0.1-0.6c-0.1-0.1-0.2-0.2-0.4-0.2 c-0.3,0-0.5,0.1-0.6,0.3c-0.1,0.2-0.2,0.4-0.2,0.8L-94.6-49.9L-94.6-49.9z M-88.8-51.6c0,0.5-0.1,0.9-0.4,1.2 c-0.3,0.3-0.6,0.4-1.1,0.4c-0.3,0-0.6-0.1-0.8-0.2c-0.2-0.1-0.4-0.3-0.5-0.6c-0.1-0.3-0.2-0.5-0.2-0.9c0-0.5,0.1-0.9,0.4-1.2 c0.3-0.3,0.6-0.4,1.1-0.4c0.5,0,0.8,0.2,1.1,0.5C-88.9-52.4-88.8-52.1-88.8-51.6z M-91.1-51.6c0,0.7,0.3,1.1,0.8,1.1 c0.5,0,0.8-0.4,0.8-1.1c0-0.7-0.3-1.1-0.8-1.1c-0.3,0-0.5,0.1-0.6,0.3C-91-52.2-91.1-51.9-91.1-51.6z M-85.2-49.9h-0.7v-2 c0-0.3-0.1-0.4-0.2-0.6c-0.1-0.1-0.3-0.2-0.5-0.2c-0.3,0-0.5,0.1-0.6,0.3c-0.1,0.2-0.2,0.5-0.2,0.9v1.6H-88v-3.2h0.5l0.1,0.4h0 c0.1-0.2,0.2-0.3,0.4-0.4s0.4-0.1,0.6-0.1c0.8,0,1.1,0.4,1.1,1.2V-49.9z M-82.9-49.9c-0.5,0-0.9-0.2-1.2-0.4 c-0.3-0.3-0.4-0.7-0.4-1.2c0-0.5,0.1-0.9,0.4-1.2c0.3-0.3,0.6-0.5,1.1-0.5c0.4,0,0.8,0.1,1,0.4c0.3,0.3,0.4,0.6,0.4,1.1v0.4h-2.1 c0,0.3,0.1,0.6,0.3,0.7c0.2,0.2,0.4,0.3,0.7,0.3c0.2,0,0.4,0,0.5-0.1c0.2,0,0.3-0.1,0.5-0.2v0.6c-0.2,0.1-0.3,0.1-0.5,0.2 C-82.5-49.9-82.6-49.9-82.9-49.9z M-83-52.7c-0.2,0-0.4,0.1-0.5,0.2c-0.1,0.1-0.2,0.3-0.2,0.6h1.4c0-0.3-0.1-0.5-0.2-0.6 S-82.8-52.7-83-52.7z M-81.5-53.1h0.7l0.7,1.8c0.1,0.3,0.2,0.5,0.2,0.7h0c0-0.1,0.1-0.2,0.1-0.4c0.1-0.2,0.3-0.9,0.7-2.2h0.7 l-1.4,3.6c-0.3,0.7-0.7,1-1.2,1c-0.2,0-0.3,0-0.4-0.1v-0.5c0.1,0,0.2,0,0.4,0c0.3,0,0.6-0.2,0.7-0.6l0.1-0.3L-81.5-53.1z"></path> </g> </g> </g> </svg>