<svg xmlns="http://www.w3.org/2000/svg" xmlns:xlink="http://www.w3.org/1999/xlink" version="1.1" id="Layer_1" x="0px" y="0px" viewBox="0 0 161.8 31.6" style="enable-background:new 0 0 161.8 31.6;" xml:space="preserve"> <style type="text/css"> .st0{fill-rule:evenodd;clip-rule:evenodd;fill:#FFFFFF;} </style> <path class="st0" d="M4.8,20.2c0,0.9,0.3,1.1,1.9,1.1v0.6H0.9v-0.6c1.1,0,1.5-0.1,1.5-1.1V11c0-1-0.4-1.1-1.5-1.1V9.4h9.6l0.1,3.4 h-0.5C9.9,10.2,9.2,10,6.9,10H4.7v5.1h1.7c1.6,0,1.7-0.3,1.9-1.5h0.5v3.7H8.3c-0.1-1.3-0.2-1.5-1.9-1.5H4.7L4.8,20.2L4.8,20.2 L4.8,20.2z M11.8,21.8v-0.6c1.1,0,1.5-0.1,1.5-1.1V11c0-1-0.4-1.1-1.5-1.1V9.4h5.3v0.6c-1.1,0-1.5,0.1-1.5,1.1v9.2 c0,1,0.4,1.1,1.5,1.1v0.6L11.8,21.8L11.8,21.8z M29.3,22l-8.5-10.6v8.7c0,1,0.7,1.2,1.9,1.2v0.6h-4.5v-0.6c1.2,0,1.8-0.2,1.8-1.2 v-9.6C19.4,10,19,9.9,18.1,9.9V9.4h4l6.5,8.4v-6.7c0-1-0.7-1.2-1.9-1.2V9.4h4.6v0.6c-1.2,0-1.8,0.2-1.8,1.2v11L29.3,22L29.3,22z M35.4,21.8h-4.5v-0.6c1.2,0,1.7-0.2,2.1-1.2L37,9.2h1.1l4.4,10.9c0.4,1,0.6,1.1,1.5,1.1v0.6h-5.2v-0.6c1.6,0,1.7-0.1,1.4-1.1 l-1.3-3.3H35l-1.2,3.2c-0.4,1,0.2,1.2,1.6,1.2L35.4,21.8L35.4,21.8L35.4,21.8z M35.2,16.2h3.4l-1.8-4.5L35.2,16.2z M55.7,22 l-8.5-10.6v8.7c0,1,0.7,1.2,1.9,1.2v0.6h-4.4v-0.6c1.1,0,1.7-0.2,1.7-1.2v-9.6c-0.6-0.6-1.1-0.6-2.1-0.6V9.4h4.3l6.5,8.4v-6.7 c0-1-0.7-1.2-1.9-1.2V9.4h4.5v0.6c-1.2,0-1.8,0.2-1.8,1.2v11L55.7,22L55.7,22z M68.4,9.3h0.3l0.2,3.7l-0.5,0 c-0.3-2.1-1.4-3.3-3.5-3.3c-2.3,0-4.1,2-4.1,5c0,3.9,2.4,6.1,5,6.1c1.1,0,2.1-0.3,3.1-1.4l0.4,0.4c-0.8,1.1-2.4,2.1-4.5,2.1 c-3.1,0-6.3-2.4-6.3-6.3c0-3.8,2.9-6.5,6.4-6.5c1.7,0,2.5,0.7,3,0.7C68.1,9.9,68.3,9.7,68.4,9.3L68.4,9.3z M70.3,21.8v-0.6 c1.1,0,1.5-0.1,1.5-1.1V11c0-1-0.4-1.1-1.5-1.1V9.4h5.3v0.6c-1.1,0-1.5,0.1-1.5,1.1v9.2c0,1,0.4,1.1,1.5,1.1v0.6L70.3,21.8 L70.3,21.8z M80.7,21.8h-4.2v-0.6c0.9,0,1.4-0.2,1.8-1.2l4.1-10.9h1.1l4.4,10.9c0.4,1,0.6,1.1,1.5,1.1v0.6h-5.2v-0.6 c1.6,0,1.7-0.1,1.4-1.1l-1.3-3.3h-3.9l-1.2,3.2c-0.4,1,0.2,1.2,1.6,1.2L80.7,21.8L80.7,21.8L80.7,21.8z M80.5,16.2h3.4l-1.7-4.5 L80.5,16.2z M90.2,21.8v-0.6c1.1,0,1.5-0.1,1.5-1.1V11c0-1-0.4-1.1-1.5-1.1V9.4h5.3v0.6C94.4,9.9,94,10,94,11v9.3 c0,0.8,0.4,0.9,1.1,0.9h0.6c2.4,0,3.2-0.4,3.9-3.1l0.5,0.1l-0.4,3.7L90.2,21.8L90.2,21.8L90.2,21.8z M116.1,9.4l0.1,3.6h-0.5 c-0.3-2.7-0.9-3-3.3-3h-0.8v10.2c0,1,0.4,1.1,1.9,1.1v0.6h-6.1v-0.6c1.5,0,1.9-0.2,1.9-1.1V10h-0.8c-2.4,0-3,0.3-3.3,3h-0.5l0.1-3.6 H116.1L116.1,9.4z M117.3,21.8v-0.6c1.1,0,1.5-0.1,1.5-1.1V11c0-1-0.4-1.1-1.5-1.1V9.4h5.3v0.6c-1.1,0-1.5,0.1-1.5,1.1v9.2 c0,1,0.4,1.1,1.5,1.1v0.6H117.3z M138.8,9.4v0.6c-1.1,0-1.6,0.1-1.5,1.1l1,9.3c0.1,1,0.5,1.1,1.6,1.1v0.6h-5.3v-0.6 c1.1,0,1.5-0.1,1.4-1.1l-1-9.7L131,22.1h-0.2L127,10.5l-0.9,9.7c-0.1,1,0.6,1.1,1.7,1.1v0.6h-4.2v-0.6c1.1,0,1.5-0.2,1.6-1.1l1-9.3 c0.1-1-0.4-1.1-1.5-1.1V9.4h4.4l2.6,8.5l2.8-8.5L138.8,9.4L138.8,9.4z M148.7,17.3h-0.5c-0.1-1.3-0.2-1.5-1.9-1.5h-1.9v4.5 c0,0.8,0.4,0.9,1.1,0.9h1c2.4,0,3.2-0.4,3.9-3.1l0.5,0.1l-0.4,3.7h-9.8v-0.6c1.1,0,1.5-0.1,1.5-1.1V11c0-1-0.4-1.1-1.5-1.1V9.4h9.4 l0.1,3.1h-0.5c-0.3-2.2-0.8-2.5-3.3-2.5h-1.9v5.1h1.9c1.6,0,1.7-0.3,1.9-1.5h0.5L148.7,17.3L148.7,17.3L148.7,17.3z M158.6,19.3 c0-1.1-0.7-1.7-2-2.4l-2-1c-1.5-0.8-2.4-1.7-2.4-3.2c0-2,1.7-3.4,3.9-3.4c1.5,0,2.3,0.7,2.7,0.7c0.3,0,0.4-0.2,0.5-0.5h0.4l0.2,3.5 l-0.5,0c-0.3-1.7-1.5-3-3.2-3c-1.3,0-2.1,0.8-2.1,1.9c0,1.2,0.9,1.7,1.9,2.2l1.7,0.9c1.6,0.9,2.7,1.7,2.7,3.4c0,2.2-1.9,3.8-4.3,3.8 c-1.7,0-2.5-0.8-2.9-0.8c-0.3,0-0.4,0.3-0.6,0.6h-0.4l-0.3-3.7l0.5-0.1c0.4,2.3,2,3.3,3.5,3.3C157.5,21.3,158.6,20.8,158.6,19.3 L158.6,19.3z"></path> </svg>