<svg xmlns="http://www.w3.org/2000/svg" id="forbes-2" width="104.137" height="26.094" viewBox="0 0 104.137 26.094"><path id="Path_1022" data-name="Path 1022" d="M86.4-2.288a8.535,8.535,0,0,0-4.308,1.077c0-3.83,0-7.3.12-8.5l-8.02,1.436v.718l.838.12C76.1-7.2,76.463-6.6,76.7-5.161c.241,2.873.12,18.193,0,20.707a31.128,31.128,0,0,0,6.7.838c6.344,0,10.174-3.95,10.174-10.175,0-4.907-3.112-8.5-7.182-8.5ZM83.643,15.068a5.4,5.4,0,0,1-1.436-.119c-.12-1.675-.239-8.738-.12-14.962a5.293,5.293,0,0,1,1.8-.359c2.635,0,4.071,3.112,4.071,6.941,0,4.789-1.8,8.5-4.31,8.5ZM44.024-9.23H22.958v1.077l1.2.12c1.555.239,2.154,1.2,2.393,3.471a138.68,138.68,0,0,1,0,15.8c-.239,2.275-.837,3.352-2.393,3.471l-1.2.241V15.9H36.483v-.957l-1.436-.241c-1.556-.119-2.154-1.2-2.394-3.471-.12-1.557-.24-4.071-.24-7.182l2.873.12c1.8,0,2.633,1.436,2.992,3.471h1.078v-8.5H38.278c-.36,2.035-1.2,3.471-2.992,3.471l-2.872.12c0-4.07.12-7.9.24-10.174h4.189c3.233,0,4.908,2.034,6.1,5.626l1.2-.359-.12-7.062Z" transform="translate(-22.958 9.708)" fill="#fff"></path><path id="Path_1023" data-name="Path 1023" d="M59.136.653c5.985,0,8.977,4.07,8.977,9.456,0,5.147-3.352,9.457-9.337,9.457S49.8,15.5,49.8,10.109c0-5.147,3.351-9.456,9.336-9.456Zm-.359,1.2c-2.633,0-3.352,3.591-3.352,8.259,0,4.548,1.2,8.259,3.591,8.259,2.751,0,3.471-3.591,3.471-8.259C62.487,5.561,61.291,1.85,58.777,1.85Zm44.645,8.379c0-4.908,3.112-9.576,9.216-9.576,5.026,0,7.421,3.711,7.421,8.618H108.927c-.12,4.429,2.034,7.661,6.344,7.661a6.149,6.149,0,0,0,4.07-1.316l.478.6a8.966,8.966,0,0,1-7.181,3.352c-5.387,0-9.216-3.831-9.216-9.337Zm5.505-2.274,5.626-.12c0-2.394-.359-5.984-2.394-5.984S109.046,5.2,108.927,7.955ZM134.3,1.611A14.628,14.628,0,0,0,128.8.653c-4.428,0-7.182,2.633-7.182,5.745s2.033,4.429,4.909,5.387c2.991,1.076,3.83,1.915,3.83,3.351a2.772,2.772,0,0,1-2.993,2.752c-2.273,0-3.95-1.316-5.266-4.908l-.838.241.12,5.266a18.914,18.914,0,0,0,6.344,1.078c4.668,0,7.661-2.4,7.661-6.1,0-2.514-1.317-3.95-4.429-5.147C127.6,7,126.406,6.159,126.406,4.6a2.487,2.487,0,0,1,2.515-2.633c2.153,0,3.589,1.317,4.668,4.549l.837-.239L134.3,1.611ZM83.673,1.132c-2.034-1.2-5.626-.6-7.54,3.711L76.252.654,68.233,2.21v.718l.838.12c1.078.12,1.556.718,1.676,2.275a100.767,100.767,0,0,1,0,10.414c-.12,1.435-.6,2.153-1.676,2.273l-.838.12v.957H79.364V18.13l-1.436-.12c-1.2-.12-1.556-.838-1.676-2.273a85.347,85.347,0,0,1-.119-9.7c.6-.838,3.231-1.556,5.625,0l1.915-4.908Z" transform="translate(-31.247 6.528)" fill="#fff"></path></svg>