<svg xmlns="http://www.w3.org/2000/svg" id="forbes-2" viewBox="0 0 104.14 26.09"><defs><style>.cls-1{fill:#fff;}</style></defs><path class="cls-1" d="M73.13,19.5c-3,0-4.84-1.73-4.84-4.52s1.71-4.7,4.47-4.7H73a12.25,12.25,0,0,1,1.48.09V6.87h2V19.18a22.76,22.76,0,0,1-3.29.32m0-7.69c-1.89,0-2.81,1-2.81,3.12A2.77,2.77,0,0,0,72.81,18a2.54,2.54,0,0,0,.39,0,9,9,0,0,0,1.27-.07v-6a8.81,8.81,0,0,0-1.35-.13m-26.7,7.41L41.15,10v9.2H39.32V7.58h2.57l5.26,9.11V7.58H49V19.22Zm16.78.18a15,15,0,0,1-2.91-.31h-.12V17.44h.17a12.47,12.47,0,0,0,2.65.39c.68,0,2.26-.11,2.26-1.11,0-.83-1.09-1-2-1.21h0l-.45-.09c-1.29-.34-2.66-.84-2.66-2.56s1.33-2.64,3.65-2.64a18.43,18.43,0,0,1,2.57.21l.31.05v1.58h-.16A13.21,13.21,0,0,0,64,11.78c-.92,0-2,.18-2,1s.89.88,1.93,1.1c1.45.32,3.24.71,3.24,2.69,0,1.81-1.46,2.85-4,2.85m18.69,0c-2,0-3.88-.36-3.88-2.94,0-2.8,2.89-2.8,4.61-2.8l1.24.05c0-1.58,0-2-2.31-2a17.43,17.43,0,0,0-2.79.34h-.17v-1.5h.11a15.12,15.12,0,0,1,3-.31c2.21,0,4.09.22,4.09,3v6h-.14a32.08,32.08,0,0,1-3.79.2m.69-4.35c-1.67,0-2.7.24-2.7,1.46,0,1.41,1.31,1.53,2.55,1.53A9.8,9.8,0,0,1,84,18V15.09H82.61m-28,4.35c-2,0-3.89-.36-3.89-2.94,0-2.8,2.89-2.8,4.62-2.8l1.23.05c0-1.58,0-2-2.3-2a17.55,17.55,0,0,0-2.8.34H51.3V10.57h.12a15.12,15.12,0,0,1,3-.31c2.21,0,4.08.22,4.08,3v6h-.13a32.08,32.08,0,0,1-3.79.2m.68-4.35c-1.67,0-2.7.24-2.7,1.46,0,1.41,1.32,1.53,2.55,1.53.47,0,1.3-.06,1.55-.08V15.09h-1.4"></path><path class="cls-1" d="M93.58,23.17V19.35a8.24,8.24,0,0,1-1.49.11A6,6,0,0,1,89.8,19a4.26,4.26,0,0,1-2.38-4.2A4.35,4.35,0,0,1,89.31,11a6,6,0,0,1,3.25-.7,16.58,16.58,0,0,1,1.91.08l1.11.06V22.29ZM92.42,11.81a2.65,2.65,0,0,0-3,2.25,2.36,2.36,0,0,0,0,.75c0,2.56,1.5,3.1,2.76,3.1a9.55,9.55,0,0,0,1.41-.1V11.86H92.41Z"></path><path class="cls-1" d="M30.6.68,24.15,18.4a1.23,1.23,0,0,1-1,.81H30a1.24,1.24,0,0,0,1.17-.82L37.55.68Z"></path><path class="cls-1" d="M22.56,19a1.14,1.14,0,0,0,1-.5,2.54,2.54,0,0,0,.16-.28L26,11.66,24.65,7.87a1.18,1.18,0,0,0-1.53-.63h0a1.09,1.09,0,0,0-.5.4,1.18,1.18,0,0,0-.16.29l-2.36,6.5,1.39,3.81a1.16,1.16,0,0,0,1.07.71"></path><path class="cls-1" d="M23.06,6.88H16.17A1.24,1.24,0,0,0,15,7.69L8.56,25.41H15.5L22,7.69a1.23,1.23,0,0,1,1.11-.81Z"></path></svg>